/* XPM */
static char *_f847c845f7a4ef1c2a2736a9f935ef6E0H6gEYzHVrVuCSB[] = {
/* columns rows colors chars-per-pixel */
"128 128 2 1 ",
"  c magenta",
". c white",
/* pixels */
"                                                                                                                                ",
"                                                                                                                                ",
"                                                                                                                                ",
"                                                                                                                                ",
"                                                                                                                                ",
"                                                                                                                                ",
"                                                                                                                                ",
"                                                                                                                                ",
"                                                                                                                                ",
"                                ................................................................                                ",
"                                ................................................................                                ",
"                                ................................................................                                ",
"                                ................................................................                                ",
"                                ................................................................                                ",
"                                ................................................................                                ",
"                                ................................................................                                ",
"                                ................................................................                                ",
"                ................                ................................                ................                ",
"                ................                ................................                ................                ",
"                ................                ................................                ................                ",
"                ................                ................................                ................                ",
"                ................                ................................                ................                ",
"                ................                ................................                ................                ",
"                ................                ................................                ................                ",
"                ................                ................................                ................                ",
"                ................                ................................                ................                ",
"                ................................                                ................................                ",
"                ................................                                ................................                ",
"                ................................                                ................................                ",
"                ................................                                ................................                ",
"                ................................                                ................................                ",
"                ................................                                ................................                ",
"                ................................                                ................................                ",
"                ................................                                ................................                ",
"                ................................                                ................................                ",
"                ................................                                ................................                ",
"                ................................                                ................................                ",
"                ................................                                ................................                ",
"                ................................                                ................................                ",
"                ................................                                ................................                ",
"                ................................                                ................................                ",
"                ................................                                ................................                ",
"                ................................                                ................................                ",
"                ................................                                ................................                ",
"                ................................                                ................................                ",
"                ................................                                ................................                ",
"                ................................                                ................................                ",
"                ................................                                ................................                ",
"                ................................                                ................................                ",
"                ................................                                ................................                ",
"                ................................                                ................................                ",
"                ................................                                ................................                ",
"                ................                                                                ................                ",
"                ................                                                                ................                ",
"                ................                                                                ................                ",
"                ................                                                                ................                ",
"                ................                                                                ................                ",
"                ................                                                                ................                ",
"                ................                                                                ................                ",
"                ................                                                                ................                ",
"                                                                                                                                ",
"                                                                                                                                ",
"                                                                                                                                ",
"                                                                                                                                ",
"                                                                                                                                ",
"                                                                                                                                ",
"                                                                                                                                ",
"                                                                                                                                ",
"                                                                                                                                ",
"                ................                                                                ................                ",
"                ................                                                                ................                ",
"                ................                                                                ................                ",
"                ................                                                                ................                ",
"                ................                                                                ................                ",
"                ................                                                                ................                ",
"                ................                                                                ................                ",
"                ................                                                                ................                ",
"                ................................                                ................................                ",
"                ................................                                ................................                ",
"                ................................                                ................................                ",
"                ................................                                ................................                ",
"                ................................                                ................................                ",
"                ................................                                ................................                ",
"                ................................                                ................................                ",
"                ................................                                ................................                ",
"                ................................                                ................................                ",
"                ................................                                ................................                ",
"                ................................                                ................................                ",
"                ................................                                ................................                ",
"                ................................                                ................................                ",
"                ................................                                ................................                ",
"                ................................                                ................................                ",
"                ................................                                ................................                ",
"                ................................                                ................................                ",
"                ................................                                ................................                ",
"                ................................                                ................................                ",
"                ................................                                ................................                ",
"                ................................                                ................................                ",
"                ................................                                ................................                ",
"                ................................                                ................................                ",
"                ................................                                ................................                ",
"                ................................                                ................................                ",
"                ................................                                ................................                ",
"                ................                ................................                ................                ",
"                ................                ................................                ................                ",
"                ................                ................................                ................                ",
"                ................                ................................                ................                ",
"                ................                ................................                ................                ",
"                ................                ................................                ................                ",
"                ................                ................................                ................                ",
"                ................                ................................                ................                ",
"                ................                ................................                ................                ",
"                                ................................................................                                ",
"                                ................................................................                                ",
"                                ................................................................                                ",
"                                ................................................................                                ",
"                                ................................................................                                ",
"                                ................................................................                                ",
"                                ................................................................                                ",
"                                ................................................................                                ",
"                                                                                                                                ",
"                                                                                                                                ",
"                                                                                                                                ",
"                                                                                                                                ",
"                                                                                                                                ",
"                                                                                                                                ",
"                                                                                                                                ",
"                                                                                                                                "
};
