/* XPM */
static char *dc46d396a0d245d3fe0228e6ef66cd4dzlAd20IXjg8gbJCe[] = {
/* columns rows colors chars-per-pixel */
"128 128 2 1 ",
"  c magenta",
". c white",
/* pixels */
"                                                                                                                                ",
"                                                                                                                                ",
"                                                                                                                                ",
"                                                                                                                                ",
"                                                                                                                                ",
"                                                                                                                                ",
"                                                                                                                                ",
"                                                                                                                                ",
"                                                                                                                                ",
"                                                                                                                                ",
"                                                                                                                                ",
"                                                                                                                                ",
"                                                                                                                                ",
"                                                                                                                                ",
"                                                                                                                                ",
"                                                                                                                                ",
"                                                                                                                                ",
"                                                                                                ................                ",
"                                                                                                ................                ",
"                                                                                                ................                ",
"                                                                                                ................                ",
"                                                                                                ................                ",
"                                                                                                ................                ",
"                                                                                                ................                ",
"                                                                                                ................                ",
"                                                                                                ................                ",
"                                                                                ................................                ",
"                                                                                ................................                ",
"                                                                                ................................                ",
"                                                                                ................................                ",
"                                                                                ................................                ",
"                                                                                ................................                ",
"                                                                                ................................                ",
"                                                                                ................................                ",
"                                                                                ................................                ",
"                                                                                ................................                ",
"                                                                                ................................                ",
"                                                                                ................................                ",
"                                                                                ................................                ",
"                                                                                ................................                ",
"                                                                                ................................                ",
"                                                                                ................................                ",
"                                                                                ................................                ",
"                                                                                ................................                ",
"                                                                                ................................                ",
"                                                                                ................................                ",
"                                                                                ................................                ",
"                                                                                ................................                ",
"                                                                                ................................                ",
"                                                                                ................................                ",
"                                                                                ................................                ",
"                                                                                                ................                ",
"                                                                                                ................                ",
"                                                                                                ................                ",
"                                                                                                ................                ",
"                                                                                                ................                ",
"                                                                                                ................                ",
"                                                                                                ................                ",
"                                                                                                ................                ",
"                                                                                                ................                ",
"                                                                                                                                ",
"                                                                                                                                ",
"                                                                                                                                ",
"                                                                                                                                ",
"                                                                                                                                ",
"                                                                                                                                ",
"                                                                                                                                ",
"                                                                                                                                ",
"                                                                                                ................                ",
"                                                                                                ................                ",
"                                                                                                ................                ",
"                                                                                                ................                ",
"                                                                                                ................                ",
"                                                                                                ................                ",
"                                                                                                ................                ",
"                                                                                                ................                ",
"                                                                                                ................                ",
"                                                                                ................................                ",
"                                                                                ................................                ",
"                                                                                ................................                ",
"                                                                                ................................                ",
"                                                                                ................................                ",
"                                                                                ................................                ",
"                                                                                ................................                ",
"                                                                                ................................                ",
"                                                                                ................................                ",
"                                                                                ................................                ",
"                                                                                ................................                ",
"                                                                                ................................                ",
"                                                                                ................................                ",
"                                                                                ................................                ",
"                                                                                ................................                ",
"                                                                                ................................                ",
"                                                                                ................................                ",
"                                                                                ................................                ",
"                                                                                ................................                ",
"                                                                                ................................                ",
"                                                                                ................................                ",
"                                                                                ................................                ",
"                                                                                ................................                ",
"                                                                                ................................                ",
"                                                                                ................................                ",
"                                                                                                ................                ",
"                                                                                                ................                ",
"                                                                                                ................                ",
"                                                                                                ................                ",
"                                                                                                ................                ",
"                                                                                                ................                ",
"                                                                                                ................                ",
"                                                                                                ................                ",
"                                                                                                ................                ",
"                                                                                                                                ",
"                                                                                                                                ",
"                                                                                                                                ",
"                                                                                                                                ",
"                                                                                                                                ",
"                                                                                                                                ",
"                                                                                                                                ",
"                                                                                                                                ",
"                                                                                                                                ",
"                                                                                                                                ",
"                                                                                                                                ",
"                                                                                                                                ",
"                                                                                                                                ",
"                                                                                                                                ",
"                                                                                                                                ",
"                                                                                                                                ",
"                                                                                                                                "
};
