/* XPM */
static char *_58c42d7bf464a82f6210e256ffa85fev3fzyTbdy6VlhM9i[] = {
/* columns rows colors chars-per-pixel */
"128 128 2 1 ",
"  c magenta",
". c white",
/* pixels */
"                                                                                                                                ",
"                                                                                                                                ",
"                                                                                                                                ",
"                                                                                                                                ",
"                                                                                                                                ",
"                                                                                                                                ",
"                                                                                                                                ",
"                                                                                                                                ",
"                                                                                                                                ",
"                                ................................................................                                ",
"                                ................................................................                                ",
"                                ................................................................                                ",
"                                ................................................................                                ",
"                                ................................................................                                ",
"                                ................................................................                                ",
"                                ................................................................                                ",
"                                ................................................................                                ",
"                                                ................................                ................                ",
"                                                ................................                ................                ",
"                                                ................................                ................                ",
"                                                ................................                ................                ",
"                                                ................................                ................                ",
"                                                ................................                ................                ",
"                                                ................................                ................                ",
"                                                ................................                ................                ",
"                                                ................................                ................                ",
"                                                                                ................................                ",
"                                                                                ................................                ",
"                                                                                ................................                ",
"                                                                                ................................                ",
"                                                                                ................................                ",
"                                                                                ................................                ",
"                                                                                ................................                ",
"                                                                                ................................                ",
"                                                                                ................................                ",
"                                                                                ................................                ",
"                                                                                ................................                ",
"                                                                                ................................                ",
"                                                                                ................................                ",
"                                                                                ................................                ",
"                                                                                ................................                ",
"                                                                                ................................                ",
"                                                                                ................................                ",
"                                                                                ................................                ",
"                                                                                ................................                ",
"                                                                                ................................                ",
"                                                                                ................................                ",
"                                                                                ................................                ",
"                                                                                ................................                ",
"                                                                                ................................                ",
"                                                                                ................................                ",
"                                                ................................                ................                ",
"                                                ................................                ................                ",
"                                                ................................                ................                ",
"                                                ................................                ................                ",
"                                                ................................                ................                ",
"                                                ................................                ................                ",
"                                                ................................                ................                ",
"                                                ................................                ................                ",
"                                                ................................                ................                ",
"                                ................................................................                                ",
"                                ................................................................                                ",
"                                ................................................................                                ",
"                                ................................................................                                ",
"                                ................................................................                                ",
"                                ................................................................                                ",
"                                ................................................................                                ",
"                                ................................................................                                ",
"                ................                                                                                                ",
"                ................                                                                                                ",
"                ................                                                                                                ",
"                ................                                                                                                ",
"                ................                                                                                                ",
"                ................                                                                                                ",
"                ................                                                                                                ",
"                ................                                                                                                ",
"                ................                                                                                                ",
"                ................................                                                                                ",
"                ................................                                                                                ",
"                ................................                                                                                ",
"                ................................                                                                                ",
"                ................................                                                                                ",
"                ................................                                                                                ",
"                ................................                                                                                ",
"                ................................                                                                                ",
"                ................................                                                                                ",
"                ................................                                                                                ",
"                ................................                                                                                ",
"                ................................                                                                                ",
"                ................................                                                                                ",
"                ................................                                                                                ",
"                ................................                                                                                ",
"                ................................                                                                                ",
"                ................................                                                                                ",
"                ................................                                                                                ",
"                ................................                                                                                ",
"                ................................                                                                                ",
"                ................................                                                                                ",
"                ................................                                                                                ",
"                ................................                                                                                ",
"                ................................                                                                                ",
"                ................................                                                                                ",
"                ................                ................................                                                ",
"                ................                ................................                                                ",
"                ................                ................................                                                ",
"                ................                ................................                                                ",
"                ................                ................................                                                ",
"                ................                ................................                                                ",
"                ................                ................................                                                ",
"                ................                ................................                                                ",
"                ................                ................................                                                ",
"                                ................................................................                                ",
"                                ................................................................                                ",
"                                ................................................................                                ",
"                                ................................................................                                ",
"                                ................................................................                                ",
"                                ................................................................                                ",
"                                ................................................................                                ",
"                                ................................................................                                ",
"                                                                                                                                ",
"                                                                                                                                ",
"                                                                                                                                ",
"                                                                                                                                ",
"                                                                                                                                ",
"                                                                                                                                ",
"                                                                                                                                ",
"                                                                                                                                ",
"                                                                                                                                "
};
