/* XPM */
static char *_1152f6cd16641f79435b7f2d732c104RpVfqbstk1FE79Ca[] = {
/* columns rows colors chars-per-pixel */
"128 128 2 1 ",
"  c magenta",
". c white",
/* pixels */
"                                                                                                                                ",
"                                                                                                                                ",
"                                                                                                                                ",
"                                                                                                                                ",
"                                                                                                                                ",
"                                                                                                                                ",
"                                                                                                                                ",
"                                                                                                                                ",
"                                                                                                                                ",
"                                                                                                                                ",
"                                                                                                                                ",
"                                                                                                                                ",
"                                                                                                                                ",
"                                                                                                                                ",
"                                                                                                                                ",
"                                                                                                                                ",
"                                                                                                                                ",
"                ................                                                                ................                ",
"                ................                                                                ................                ",
"                ................                                                                ................                ",
"                ................                                                                ................                ",
"                ................                                                                ................                ",
"                ................                                                                ................                ",
"                ................                                                                ................                ",
"                ................                                                                ................                ",
"                ................                                                                ................                ",
"                ................................                                ................................                ",
"                ................................                                ................................                ",
"                ................................                                ................................                ",
"                ................................                                ................................                ",
"                ................................                                ................................                ",
"                ................................                                ................................                ",
"                ................................                                ................................                ",
"                ................................                                ................................                ",
"                ................................                                ................................                ",
"                ................................                                ................................                ",
"                ................................                                ................................                ",
"                ................................                                ................................                ",
"                ................................                                ................................                ",
"                ................................                                ................................                ",
"                ................................                                ................................                ",
"                ................................                                ................................                ",
"                ................................                                ................................                ",
"                ................................                                ................................                ",
"                ................................                                ................................                ",
"                ................................                                ................................                ",
"                ................................                                ................................                ",
"                ................................                                ................................                ",
"                ................................                                ................................                ",
"                ................................                                ................................                ",
"                ................................                                ................................                ",
"                ................                ................................                ................                ",
"                ................                ................................                ................                ",
"                ................                ................................                ................                ",
"                ................                ................................                ................                ",
"                ................                ................................                ................                ",
"                ................                ................................                ................                ",
"                ................                ................................                ................                ",
"                ................                ................................                ................                ",
"                ................                ................................                ................                ",
"                                ................................................................                                ",
"                                ................................................................                                ",
"                                ................................................................                                ",
"                                ................................................................                                ",
"                                ................................................................                                ",
"                                ................................................................                                ",
"                                ................................................................                                ",
"                                ................................................................                                ",
"                                                                                                ................                ",
"                                                                                                ................                ",
"                                                                                                ................                ",
"                                                                                                ................                ",
"                                                                                                ................                ",
"                                                                                                ................                ",
"                                                                                                ................                ",
"                                                                                                ................                ",
"                                                                                                ................                ",
"                                                                                ................................                ",
"                                                                                ................................                ",
"                                                                                ................................                ",
"                                                                                ................................                ",
"                                                                                ................................                ",
"                                                                                ................................                ",
"                                                                                ................................                ",
"                                                                                ................................                ",
"                                                                                ................................                ",
"                                                                                ................................                ",
"                                                                                ................................                ",
"                                                                                ................................                ",
"                                                                                ................................                ",
"                                                                                ................................                ",
"                                                                                ................................                ",
"                                                                                ................................                ",
"                                                                                ................................                ",
"                                                                                ................................                ",
"                                                                                ................................                ",
"                                                                                ................................                ",
"                                                                                ................................                ",
"                                                                                ................................                ",
"                                                                                ................................                ",
"                                                                                ................................                ",
"                                                                                ................................                ",
"                                                                                                ................                ",
"                                                                                                ................                ",
"                                                                                                ................                ",
"                                                                                                ................                ",
"                                                                                                ................                ",
"                                                                                                ................                ",
"                                                                                                ................                ",
"                                                                                                ................                ",
"                                                                                                ................                ",
"                                                                                                                                ",
"                                                                                                                                ",
"                                                                                                                                ",
"                                                                                                                                ",
"                                                                                                                                ",
"                                                                                                                                ",
"                                                                                                                                ",
"                                                                                                                                ",
"                                                                                                                                ",
"                                                                                                                                ",
"                                                                                                                                ",
"                                                                                                                                ",
"                                                                                                                                ",
"                                                                                                                                ",
"                                                                                                                                ",
"                                                                                                                                ",
"                                                                                                                                "
};
