/* XPM */
static char *ad9f393b532a4513e7473d8293b64a15BINRyAGMaMGRuQ9M[] = {
/* columns rows colors chars-per-pixel */
"128 128 2 1 ",
"  c magenta",
". c white",
/* pixels */
"                                                                                                                                ",
"                                                                                                                                ",
"                                                                                                                                ",
"                                                                                                                                ",
"                                                                                                                                ",
"                                                                                                                                ",
"                                                                                                                                ",
"                                                                                                                                ",
"                                                                                                                                ",
"                                ................................................................                                ",
"                                ................................................................                                ",
"                                ................................................................                                ",
"                                ................................................................                                ",
"                                ................................................................                                ",
"                                ................................................................                                ",
"                                ................................................................                                ",
"                                ................................................................                                ",
"                ................                ................................                                                ",
"                ................                ................................                                                ",
"                ................                ................................                                                ",
"                ................                ................................                                                ",
"                ................                ................................                                                ",
"                ................                ................................                                                ",
"                ................                ................................                                                ",
"                ................                ................................                                                ",
"                ................                ................................                                                ",
"                ................................                                                                                ",
"                ................................                                                                                ",
"                ................................                                                                                ",
"                ................................                                                                                ",
"                ................................                                                                                ",
"                ................................                                                                                ",
"                ................................                                                                                ",
"                ................................                                                                                ",
"                ................................                                                                                ",
"                ................................                                                                                ",
"                ................................                                                                                ",
"                ................................                                                                                ",
"                ................................                                                                                ",
"                ................................                                                                                ",
"                ................................                                                                                ",
"                ................................                                                                                ",
"                ................................                                                                                ",
"                ................................                                                                                ",
"                ................................                                                                                ",
"                ................................                                                                                ",
"                ................................                                                                                ",
"                ................................                                                                                ",
"                ................................                                                                                ",
"                ................................                                                                                ",
"                ................................                                                                                ",
"                ................                ................................                                                ",
"                ................                ................................                                                ",
"                ................                ................................                                                ",
"                ................                ................................                                                ",
"                ................                ................................                                                ",
"                ................                ................................                                                ",
"                ................                ................................                                                ",
"                ................                ................................                                                ",
"                ................                ................................                                                ",
"                                ................................................................                                ",
"                                ................................................................                                ",
"                                ................................................................                                ",
"                                ................................................................                                ",
"                                ................................................................                                ",
"                                ................................................................                                ",
"                                ................................................................                                ",
"                                ................................................................                                ",
"                                                                                                ................                ",
"                                                                                                ................                ",
"                                                                                                ................                ",
"                                                                                                ................                ",
"                                                                                                ................                ",
"                                                                                                ................                ",
"                                                                                                ................                ",
"                                                                                                ................                ",
"                                                                                                ................                ",
"                                                                                ................................                ",
"                                                                                ................................                ",
"                                                                                ................................                ",
"                                                                                ................................                ",
"                                                                                ................................                ",
"                                                                                ................................                ",
"                                                                                ................................                ",
"                                                                                ................................                ",
"                                                                                ................................                ",
"                                                                                ................................                ",
"                                                                                ................................                ",
"                                                                                ................................                ",
"                                                                                ................................                ",
"                                                                                ................................                ",
"                                                                                ................................                ",
"                                                                                ................................                ",
"                                                                                ................................                ",
"                                                                                ................................                ",
"                                                                                ................................                ",
"                                                                                ................................                ",
"                                                                                ................................                ",
"                                                                                ................................                ",
"                                                                                ................................                ",
"                                                                                ................................                ",
"                                                                                ................................                ",
"                                                ................................                ................                ",
"                                                ................................                ................                ",
"                                                ................................                ................                ",
"                                                ................................                ................                ",
"                                                ................................                ................                ",
"                                                ................................                ................                ",
"                                                ................................                ................                ",
"                                                ................................                ................                ",
"                                                ................................                ................                ",
"                                ................................................................                                ",
"                                ................................................................                                ",
"                                ................................................................                                ",
"                                ................................................................                                ",
"                                ................................................................                                ",
"                                ................................................................                                ",
"                                ................................................................                                ",
"                                ................................................................                                ",
"                                                                                                                                ",
"                                                                                                                                ",
"                                                                                                                                ",
"                                                                                                                                ",
"                                                                                                                                ",
"                                                                                                                                ",
"                                                                                                                                ",
"                                                                                                                                ",
"                                                                                                                                "
};
