/* XPM */
static char *dc9e06fc2a5e4f34c305201727a303adIyGVj9SUewGNTsDj[] = {
/* columns rows colors chars-per-pixel */
"128 128 2 1 ",
"  c magenta",
". c white",
/* pixels */
"                                                                                                                                ",
"                                                                                                                                ",
"                                                                                                                                ",
"                                                                                                                                ",
"                                                                                                                                ",
"                                                                                                                                ",
"                                                                                                                                ",
"                                                                                                                                ",
"                                                                                                                                ",
"                                ................................................................                                ",
"                                ................................................................                                ",
"                                ................................................................                                ",
"                                ................................................................                                ",
"                                ................................................................                                ",
"                                ................................................................                                ",
"                                ................................................................                                ",
"                                ................................................................                                ",
"                ................                ................................                                                ",
"                ................                ................................                                                ",
"                ................                ................................                                                ",
"                ................                ................................                                                ",
"                ................                ................................                                                ",
"                ................                ................................                                                ",
"                ................                ................................                                                ",
"                ................                ................................                                                ",
"                ................                ................................                                                ",
"                ................................                                                                                ",
"                ................................                                                                                ",
"                ................................                                                                                ",
"                ................................                                                                                ",
"                ................................                                                                                ",
"                ................................                                                                                ",
"                ................................                                                                                ",
"                ................................                                                                                ",
"                ................................                                                                                ",
"                ................................                                                                                ",
"                ................................                                                                                ",
"                ................................                                                                                ",
"                ................................                                                                                ",
"                ................................                                                                                ",
"                ................................                                                                                ",
"                ................................                                                                                ",
"                ................................                                                                                ",
"                ................................                                                                                ",
"                ................................                                                                                ",
"                ................................                                                                                ",
"                ................................                                                                                ",
"                ................................                                                                                ",
"                ................................                                                                                ",
"                ................................                                                                                ",
"                ................................                                                                                ",
"                ................                ................................                                                ",
"                ................                ................................                                                ",
"                ................                ................................                                                ",
"                ................                ................................                                                ",
"                ................                ................................                                                ",
"                ................                ................................                                                ",
"                ................                ................................                                                ",
"                ................                ................................                                                ",
"                ................                ................................                                                ",
"                                ................................................................                                ",
"                                ................................................................                                ",
"                                ................................................................                                ",
"                                ................................................................                                ",
"                                ................................................................                                ",
"                                ................................................................                                ",
"                                ................................................................                                ",
"                                ................................................................                                ",
"                ................                                                                ................                ",
"                ................                                                                ................                ",
"                ................                                                                ................                ",
"                ................                                                                ................                ",
"                ................                                                                ................                ",
"                ................                                                                ................                ",
"                ................                                                                ................                ",
"                ................                                                                ................                ",
"                ................                                                                ................                ",
"                ................................                                ................................                ",
"                ................................                                ................................                ",
"                ................................                                ................................                ",
"                ................................                                ................................                ",
"                ................................                                ................................                ",
"                ................................                                ................................                ",
"                ................................                                ................................                ",
"                ................................                                ................................                ",
"                ................................                                ................................                ",
"                ................................                                ................................                ",
"                ................................                                ................................                ",
"                ................................                                ................................                ",
"                ................................                                ................................                ",
"                ................................                                ................................                ",
"                ................................                                ................................                ",
"                ................................                                ................................                ",
"                ................................                                ................................                ",
"                ................................                                ................................                ",
"                ................................                                ................................                ",
"                ................................                                ................................                ",
"                ................................                                ................................                ",
"                ................................                                ................................                ",
"                ................................                                ................................                ",
"                ................................                                ................................                ",
"                ................................                                ................................                ",
"                ................                ................................                ................                ",
"                ................                ................................                ................                ",
"                ................                ................................                ................                ",
"                ................                ................................                ................                ",
"                ................                ................................                ................                ",
"                ................                ................................                ................                ",
"                ................                ................................                ................                ",
"                ................                ................................                ................                ",
"                ................                ................................                ................                ",
"                                ................................................................                                ",
"                                ................................................................                                ",
"                                ................................................................                                ",
"                                ................................................................                                ",
"                                ................................................................                                ",
"                                ................................................................                                ",
"                                ................................................................                                ",
"                                ................................................................                                ",
"                                                                                                                                ",
"                                                                                                                                ",
"                                                                                                                                ",
"                                                                                                                                ",
"                                                                                                                                ",
"                                                                                                                                ",
"                                                                                                                                ",
"                                                                                                                                ",
"                                                                                                                                "
};
