/* XPM */
static char *_4bee3cb597c4d44b64e1d6e62601e08FH0ZghI1UMCUL3cc[] = {
/* columns rows colors chars-per-pixel */
"128 128 2 1 ",
"  c magenta",
". c white",
/* pixels */
"                                                                                                                                ",
"                                                                                                                                ",
"                                                                                                                                ",
"                                                                                                                                ",
"                                                                                                                                ",
"                                                                                                                                ",
"                                                                                                                                ",
"                                                                                                                                ",
"                                                                                                                                ",
"                                ................................................................                                ",
"                                ................................................................                                ",
"                                ................................................................                                ",
"                                ................................................................                                ",
"                                ................................................................                                ",
"                                ................................................................                                ",
"                                ................................................................                                ",
"                                ................................................................                                ",
"                                                ................................                ................                ",
"                                                ................................                ................                ",
"                                                ................................                ................                ",
"                                                ................................                ................                ",
"                                                ................................                ................                ",
"                                                ................................                ................                ",
"                                                ................................                ................                ",
"                                                ................................                ................                ",
"                                                ................................                ................                ",
"                                                                                ................................                ",
"                                                                                ................................                ",
"                                                                                ................................                ",
"                                                                                ................................                ",
"                                                                                ................................                ",
"                                                                                ................................                ",
"                                                                                ................................                ",
"                                                                                ................................                ",
"                                                                                ................................                ",
"                                                                                ................................                ",
"                                                                                ................................                ",
"                                                                                ................................                ",
"                                                                                ................................                ",
"                                                                                ................................                ",
"                                                                                ................................                ",
"                                                                                ................................                ",
"                                                                                ................................                ",
"                                                                                ................................                ",
"                                                                                ................................                ",
"                                                                                ................................                ",
"                                                                                ................................                ",
"                                                                                ................................                ",
"                                                                                ................................                ",
"                                                                                ................................                ",
"                                                                                ................................                ",
"                                                                                                ................                ",
"                                                                                                ................                ",
"                                                                                                ................                ",
"                                                                                                ................                ",
"                                                                                                ................                ",
"                                                                                                ................                ",
"                                                                                                ................                ",
"                                                                                                ................                ",
"                                                                                                ................                ",
"                                                                                                                                ",
"                                                                                                                                ",
"                                                                                                                                ",
"                                                                                                                                ",
"                                                                                                                                ",
"                                                                                                                                ",
"                                                                                                                                ",
"                                                                                                                                ",
"                                                                                                ................                ",
"                                                                                                ................                ",
"                                                                                                ................                ",
"                                                                                                ................                ",
"                                                                                                ................                ",
"                                                                                                ................                ",
"                                                                                                ................                ",
"                                                                                                ................                ",
"                                                                                                ................                ",
"                                                                                ................................                ",
"                                                                                ................................                ",
"                                                                                ................................                ",
"                                                                                ................................                ",
"                                                                                ................................                ",
"                                                                                ................................                ",
"                                                                                ................................                ",
"                                                                                ................................                ",
"                                                                                ................................                ",
"                                                                                ................................                ",
"                                                                                ................................                ",
"                                                                                ................................                ",
"                                                                                ................................                ",
"                                                                                ................................                ",
"                                                                                ................................                ",
"                                                                                ................................                ",
"                                                                                ................................                ",
"                                                                                ................................                ",
"                                                                                ................................                ",
"                                                                                ................................                ",
"                                                                                ................................                ",
"                                                                                ................................                ",
"                                                                                ................................                ",
"                                                                                ................................                ",
"                                                                                ................................                ",
"                                                                                                ................                ",
"                                                                                                ................                ",
"                                                                                                ................                ",
"                                                                                                ................                ",
"                                                                                                ................                ",
"                                                                                                ................                ",
"                                                                                                ................                ",
"                                                                                                ................                ",
"                                                                                                ................                ",
"                                                                                                                                ",
"                                                                                                                                ",
"                                                                                                                                ",
"                                                                                                                                ",
"                                                                                                                                ",
"                                                                                                                                ",
"                                                                                                                                ",
"                                                                                                                                ",
"                                                                                                                                ",
"                                                                                                                                ",
"                                                                                                                                ",
"                                                                                                                                ",
"                                                                                                                                ",
"                                                                                                                                ",
"                                                                                                                                ",
"                                                                                                                                ",
"                                                                                                                                "
};
