/* XPM */
static char *_5167316e66b4470f9fc0968b526fb32SLAqgAynLzBw4Aqu[] = {
/* columns rows colors chars-per-pixel */
"128 128 2 1 ",
"  c magenta",
". c white",
/* pixels */
"                                                                                                                                ",
"                                                                                                                                ",
"                                                                                                                                ",
"                                                                                                                                ",
"                                                                                                                                ",
"                                                                                                                                ",
"                                                                                                                                ",
"                                                                                                                                ",
"                                                                                                                                ",
"                                ................................................................                                ",
"                                ................................................................                                ",
"                                ................................................................                                ",
"                                ................................................................                                ",
"                                ................................................................                                ",
"                                ................................................................                                ",
"                                ................................................................                                ",
"                                ................................................................                                ",
"                ................                ................................                ................                ",
"                ................                ................................                ................                ",
"                ................                ................................                ................                ",
"                ................                ................................                ................                ",
"                ................                ................................                ................                ",
"                ................                ................................                ................                ",
"                ................                ................................                ................                ",
"                ................                ................................                ................                ",
"                ................                ................................                ................                ",
"                ................................                                ................................                ",
"                ................................                                ................................                ",
"                ................................                                ................................                ",
"                ................................                                ................................                ",
"                ................................                                ................................                ",
"                ................................                                ................................                ",
"                ................................                                ................................                ",
"                ................................                                ................................                ",
"                ................................                                ................................                ",
"                ................................                                ................................                ",
"                ................................                                ................................                ",
"                ................................                                ................................                ",
"                ................................                                ................................                ",
"                ................................                                ................................                ",
"                ................................                                ................................                ",
"                ................................                                ................................                ",
"                ................................                                ................................                ",
"                ................................                                ................................                ",
"                ................................                                ................................                ",
"                ................................                                ................................                ",
"                ................................                                ................................                ",
"                ................................                                ................................                ",
"                ................................                                ................................                ",
"                ................................                                ................................                ",
"                ................................                                ................................                ",
"                ................                ................................                ................                ",
"                ................                ................................                ................                ",
"                ................                ................................                ................                ",
"                ................                ................................                ................                ",
"                ................                ................................                ................                ",
"                ................                ................................                ................                ",
"                ................                ................................                ................                ",
"                ................                ................................                ................                ",
"                ................                ................................                ................                ",
"                                ................................................................                                ",
"                                ................................................................                                ",
"                                ................................................................                                ",
"                                ................................................................                                ",
"                                ................................................................                                ",
"                                ................................................................                                ",
"                                ................................................................                                ",
"                                ................................................................                                ",
"                ................                                                                ................                ",
"                ................                                                                ................                ",
"                ................                                                                ................                ",
"                ................                                                                ................                ",
"                ................                                                                ................                ",
"                ................                                                                ................                ",
"                ................                                                                ................                ",
"                ................                                                                ................                ",
"                ................                                                                ................                ",
"                ................................                                ................................                ",
"                ................................                                ................................                ",
"                ................................                                ................................                ",
"                ................................                                ................................                ",
"                ................................                                ................................                ",
"                ................................                                ................................                ",
"                ................................                                ................................                ",
"                ................................                                ................................                ",
"                ................................                                ................................                ",
"                ................................                                ................................                ",
"                ................................                                ................................                ",
"                ................................                                ................................                ",
"                ................................                                ................................                ",
"                ................................                                ................................                ",
"                ................................                                ................................                ",
"                ................................                                ................................                ",
"                ................................                                ................................                ",
"                ................................                                ................................                ",
"                ................................                                ................................                ",
"                ................................                                ................................                ",
"                ................................                                ................................                ",
"                ................................                                ................................                ",
"                ................................                                ................................                ",
"                ................................                                ................................                ",
"                ................................                                ................................                ",
"                ................                ................................                ................                ",
"                ................                ................................                ................                ",
"                ................                ................................                ................                ",
"                ................                ................................                ................                ",
"                ................                ................................                ................                ",
"                ................                ................................                ................                ",
"                ................                ................................                ................                ",
"                ................                ................................                ................                ",
"                ................                ................................                ................                ",
"                                ................................................................                                ",
"                                ................................................................                                ",
"                                ................................................................                                ",
"                                ................................................................                                ",
"                                ................................................................                                ",
"                                ................................................................                                ",
"                                ................................................................                                ",
"                                ................................................................                                ",
"                                                                                                                                ",
"                                                                                                                                ",
"                                                                                                                                ",
"                                                                                                                                ",
"                                                                                                                                ",
"                                                                                                                                ",
"                                                                                                                                ",
"                                                                                                                                ",
"                                                                                                                                "
};
