/* XPM */
static char *_1074a1d59404bb4bd358212252fabf86vYwRqdI5vInWW1D[] = {
/* columns rows colors chars-per-pixel */
"128 128 2 1 ",
"  c magenta",
". c white",
/* pixels */
"                                                                                                                                ",
"                                                                                                                                ",
"                                                                                                                                ",
"                                                                                                                                ",
"                                                                                                                                ",
"                                                                                                                                ",
"                                                                                                                                ",
"                                                                                                                                ",
"                                                                                                                                ",
"                                ................................................................                                ",
"                                ................................................................                                ",
"                                ................................................................                                ",
"                                ................................................................                                ",
"                                ................................................................                                ",
"                                ................................................................                                ",
"                                ................................................................                                ",
"                                ................................................................                                ",
"                ................                ................................                ................                ",
"                ................                ................................                ................                ",
"                ................                ................................                ................                ",
"                ................                ................................                ................                ",
"                ................                ................................                ................                ",
"                ................                ................................                ................                ",
"                ................                ................................                ................                ",
"                ................                ................................                ................                ",
"                ................                ................................                ................                ",
"                ................................                                ................................                ",
"                ................................                                ................................                ",
"                ................................                                ................................                ",
"                ................................                                ................................                ",
"                ................................                                ................................                ",
"                ................................                                ................................                ",
"                ................................                                ................................                ",
"                ................................                                ................................                ",
"                ................................                                ................................                ",
"                ................................                                ................................                ",
"                ................................                                ................................                ",
"                ................................                                ................................                ",
"                ................................                                ................................                ",
"                ................................                                ................................                ",
"                ................................                                ................................                ",
"                ................................                                ................................                ",
"                ................................                                ................................                ",
"                ................................                                ................................                ",
"                ................................                                ................................                ",
"                ................................                                ................................                ",
"                ................................                                ................................                ",
"                ................................                                ................................                ",
"                ................................                                ................................                ",
"                ................................                                ................................                ",
"                ................................                                ................................                ",
"                ................                ................................                ................                ",
"                ................                ................................                ................                ",
"                ................                ................................                ................                ",
"                ................                ................................                ................                ",
"                ................                ................................                ................                ",
"                ................                ................................                ................                ",
"                ................                ................................                ................                ",
"                ................                ................................                ................                ",
"                ................                ................................                ................                ",
"                                ................................................................                                ",
"                                ................................................................                                ",
"                                ................................................................                                ",
"                                ................................................................                                ",
"                                ................................................................                                ",
"                                ................................................................                                ",
"                                ................................................................                                ",
"                                ................................................................                                ",
"                                                                                                ................                ",
"                                                                                                ................                ",
"                                                                                                ................                ",
"                                                                                                ................                ",
"                                                                                                ................                ",
"                                                                                                ................                ",
"                                                                                                ................                ",
"                                                                                                ................                ",
"                                                                                                ................                ",
"                                                                                ................................                ",
"                                                                                ................................                ",
"                                                                                ................................                ",
"                                                                                ................................                ",
"                                                                                ................................                ",
"                                                                                ................................                ",
"                                                                                ................................                ",
"                                                                                ................................                ",
"                                                                                ................................                ",
"                                                                                ................................                ",
"                                                                                ................................                ",
"                                                                                ................................                ",
"                                                                                ................................                ",
"                                                                                ................................                ",
"                                                                                ................................                ",
"                                                                                ................................                ",
"                                                                                ................................                ",
"                                                                                ................................                ",
"                                                                                ................................                ",
"                                                                                ................................                ",
"                                                                                ................................                ",
"                                                                                ................................                ",
"                                                                                ................................                ",
"                                                                                ................................                ",
"                                                                                ................................                ",
"                                                ................................                ................                ",
"                                                ................................                ................                ",
"                                                ................................                ................                ",
"                                                ................................                ................                ",
"                                                ................................                ................                ",
"                                                ................................                ................                ",
"                                                ................................                ................                ",
"                                                ................................                ................                ",
"                                                ................................                ................                ",
"                                ................................................................                                ",
"                                ................................................................                                ",
"                                ................................................................                                ",
"                                ................................................................                                ",
"                                ................................................................                                ",
"                                ................................................................                                ",
"                                ................................................................                                ",
"                                ................................................................                                ",
"                                                                                                                                ",
"                                                                                                                                ",
"                                                                                                                                ",
"                                                                                                                                ",
"                                                                                                                                ",
"                                                                                                                                ",
"                                                                                                                                ",
"                                                                                                                                ",
"                                                                                                                                "
};
