/* XPM */
static char *result[] = {
/* columns rows colors chars-per-pixel */
"128 128 5 1 ",
"  c black",
". c #074890",
"X c #009CFF",
"o c white",
"O c magenta",
/* pixels */
"OOOOOOOOOOOOOOOOOOOOOOOOOOOOOOOOOOOOOOOOOOOOOOOOOOOOOOOOOOOOOOOOOOOOOOOOOOOOOOOOOOOOOOOOOOOOOOOOOOOOOOOOOOOOOOOOOOOOOOOOOOOOOOOO",
"OOOOOOOOOOOOOOOOOOOOOOOOOOOOOOOOOOOOOOOOOOOOOOOOOOOOOOOOOOOOOOOooooooooooOOOOOOOOOOOOOOOOOOOOOOOOOOOOOOOOOOOOOOOOOOOOOOOOOOOOOOO",
"OOOOOOOOOOOOOOOOOOOOOOOOOOOOOOOOOOOOOOOOOOOOOOOOOOOOOOOOOOOOOOOooooooooooOOOOOOOOOOOOOOOOOOOOOOOOOOOOOOOOOOOOOOOOOOOOOOOOOOOOOOO",
"OOOOOOOOOOOOOOOOOOOOOOOOOOOOOOOOOOOOOOOOOOOO..OOOOOOOOOOOOOOOOOOOOOOOOOOOoooooo...OOOOOOOOOOOOOOOOOOOOOOOOOOOOOOOOOOOOOOOOOOOOOO",
"OOOOOOOOOOOOOOOOOOOOOOOOOOOOOOOOOOOOOOOOOOOO..OOOOOOOOOOOOOOOOOOOOOOOOOOOoooooo...OOOOOOOOOOOOOOOOOOOOOOOOOOOOOOOOOOOOOOOOOOOOOO",
"OOOOOOOOOOOOOOOOOOOOOOOOOOOOOOOOOOOOOOXXOOOOOOOOOOOOOOOOOOOOOOOOOOOOOOOOOOOOOOOOOO..OOOOOOOOOOOOOOOOOOOOOOOOOOOOOOOOOOOOOOOOOOOO",
"OOOOOOOOOOOOOOOOOOOOOOOOOOOOOOOOOOOOOOXXOOOOOOOOOOOOOOOOOOOOOOOOOOOOOOOOOOOOOOOOOO..OOOOOOOOOOOOOOOOOOOOOOOOOOOOOOOOOOOOOOOOOOOO",
"OOOOOOOOOOOOOOOOOOOOOOOOOOOOOOOOOOOOOOOOOOOOOOOOOOOOOOOOOOOOOOOOOOOOOOOOOOOOOOOOOOOOOOOOOOooOOOOOOOOOOOOOOOOOOOOOOOOOOOOOOOOOOOO",
"OOOOOOOOOOOOOOOOOOOOOOOOOOOOOOOOOOOOOOOOOOOOOOOOOOOOOOOOOOOOOOOOOOOOOOOOOOOOOOOOOOOOOOOOOOooOOOOOOOOOOOOOOOOOOOOOOOOOOOOOOOOOOOO",
"OOOOOOOOOOOOOOOOOOOOOOOOOOOOOOooOOOOOOOOOOOOOOOOOOOOOOOOOOOOOOOOOOOOOOOOOOOOOOOOOOOOOOOOOOOOXX..OOOOOOOOOOOOOOOOOOOOOOOOOOOOOOOO",
"OOOOOOOOOOOOOOOOOOOOOOOOOOOOOOooOOOOOOOOOOOOOOOOOOOOOOOOOOOOOOOOOOOOOOOOOOOOOOOOOOOOOOOOOOOOXX..OOOOOOOOOOOOOOOOOOOOOOOOOOOOOOOO",
"OOOOOOOOOOOOOOOOOOOOOOOOOOOOOOooOOOOOOOOOOOOOOOOOOOOOOOOOOOOOOOOOOOOOOOOOOOOOOOOOOOOOOOOOOOOXX..OOOOOOOOOOOOOOOOOOOOOOOOOOOOOOOO",
"OOOOOOOOOOOOOOOOOOOOOOOOOOOOOOOOOOOOOOOOOOOOOOOOOOOOOOOOOOOOOOOOOOOOOOOOOOOOOOOOOOOOOOOOOOOOOOOOOOOOOOOOOOOOOOOOOOOOOOOOOOOOOOOO",
"OOOOOOOOOOOOOOOOOOOOOOOOOOOOOOOOOOOOOOOOOOOOOOOOOOOOOOOOOOOOOOOOOOOOOOOOOOOOOOOOOOOOOOOOOOOOOOOOOOOOOOOOOOOOOOOOOOOOOOOOOOOOOOOO",
"OOOOOOOOOOOOOOOOOOOOOOOOOOOOOOOOOOOOOOOOOOOOOOOOOOOOOOOOOOOOOOOOOOOOOOOOOOOOOOOOOOOOOOOOOOOOOOOOOOOOOOOOOOOOOOOOOOOOOOOOOOOOOOOO",
"OOOOOOOOOOOOOOOOOOOOOOOOOOOOOOOOOOOOOOOOOOOOOOOOOOOOOOOOOOOOOOOOOOOOOOOOOOOOOOOOOOOOOOOOOOOOOOOOOOOOOOOOOOOOOOOOOOOOOOOOOOOOOOOO",
"OOOOOOOOOOOOOOOOOOOOOOOOOOOOOOOOOOOOOOOOOOOOOOOOOOOOOOOOOOOOOOOOOOOOOOOOOOOOOOOOOOOOOOOOOOOOOOOOOOOOOOOOOOOOOOOOOOOOOOOOOOOOOOOO",
"OOOOOOOOOOOOOOOOOOOOOOOOOOOOOOOOOOOOOOOOOOOOOOOOOOOOOOOOOOOOOOOOOOOOOOOOOOOOOOOOOOOOOOOOOOOOOOOOOOOOOOOOOOOOOOOOOOOOOOOOOOOOOOOO",
"OOOOOOOOOOOOOOOOOOOOXXOOOOOOOOOOOOOOOOOOOOOOOOOOOOOOOOOOOOOOOOOOOOOOOOOOOOOOOOOOOOOOOOooOOOOOOOOOOOOOOOOXXOOOOOOOOOOOOOOOOOOOOOO",
"OOOOOOOOOOOOOOOOOOOOXXOOOOOOOOOOOOOOOOOOOOOOOOOOOOOOOOOOOOOOOOOOOOOOOOOOOOOOOOOOOOOOOOooOOOOOOOOOOOOOOOOXXOOOOOOOOOOOOOOOOOOOOOO",
"OOOOOOOOOOOOOOOOOOOOOOOOOOOOOOOOOOOOOOOOOOOOOOOOOOOOOOOOOOOOOOOOOOOOOOOOOOOOOOOOOOOOOOOOooOOOOOOOOOOOOOOOOooOOOOOOOOOOOOOOOOOOOO",
"OOOOOOOOOOOOOOOOOOOOOOOOOOOOOOOOOOOOOOOOOOOOOOOOOOOOOOOOOOOOOOOOOOOOOOOOOOOOOOOOOOOOOOOOooOOOOOOOOOOOOOOOOooOOOOOOOOOOOOOOOOOOOO",
"OOOOOOOOOOOOOOOOOOOOOOOOOOOOOOOOOOOOOOOOOOOOOOOOOOOOOOOOOOOOOOOOOOOOOOOOOOOOOOOOOOOOOOOOOOOOOOOOOOOOOOOOOOOO..OOOOOOOOOOOOOOOOOO",
"OOOOOOOOOOOOOOOOOOOOOOOOOOOOOOOOOOOOOOOOOOOOOOOOOOOOOOOOOOOOOOOOOOOOOOOOOOOOOOOOOOOOOOOOOOOOOOOOOOOOOOOOOOOO..OOOOOOOOOOOOOOOOOO",
"OOOOOOOOOOOOO..OOOOOOOOOOOOOOOOOOOOOOOOOOOOOOOOOOOOOOOOOOOOooOOXXXXXX..OOOOOOOOOOOOOOOOOOOOOOOooOOOOOOOOOOOOOO...OOOOOOOOOOOOOOO",
"OOOOOOOOOOOOO..OOOOOOOOOOOOOOOOOOOOOOOOOOOOOOOOOOOOOOOOOOOOooOOXXXXXX..OOOOOOOOOOOOOOOOOOOOOOOooOOOOOOOOOOOOOO...OOOOOOOOOOOOOOO",
"OOOOOOOOOOOOOXXOOOOOXXOOOOOOOOOOOOOOOOOOOOOOOOOOOOOOOOO                OOOOOO..OOOOOOOOOOOOOOOOOOOOOOOOOOOOOOOOOOOOOOOOOOOOOOOOO",
"OOOOOOOOOOOOOXXOOOOOXXOOOOOOOOOOOOOOOOOOOOOOOOOOOOOOOOO                OOOOOO..OOOOOOOOOOOOOOOOOOOOOOOOOOOOOOOOOOOOOOOOOOOOOOOOO",
"OOOOOOOOOOOOOOOOOOOOOOOOOOOOOOOOOOOOOOOOOOXXXXXXX                            ..OOOOOOOOOOOOOOOOOOOOOOOOOOOOOOOOOOOOOOOOOOOOOOOOO",
"OOOOOOOOOOOOOOOOOOOOOOOOOOOOOOOOOOOOOOOOOOXXXXXXX                            ..OOOOOOOOOOOOOOOOOOOOOOOOOOOOOOOOOOOOOOOOOOOOOOOOO",
"OOOOOOOOOOOOOOOOOOOOOOOOOOOOOOOOOOOOOOOOOOOO                                      OOOOOOOOOOOOOOOOOOOOOOOOOOOOOOOOOXXOOOOOOOOOOO",
"OOOOOOOOOOOOOOOOOOOOOOOOOOOOOOOOOOOOOOOOOOOO                                      OOOOOOOOOOOOOOOOOOOOOOOOOOOOOOOOOXXOOOOOOOOOOO",
"OOOOOOOOOOOOOOOOOOOOOOOOOOOOOOOOOOOOOOOOOOOO                                      OOOOOOOOOOOOOOOOOOOOOOOOOOOOOOOOOXXOOOOOOOOOOO",
"OOOOOOOOOOOOOOO...OOOOOOOOOOOOOOOOOOOOOO                                              OOOOOOOOOOOOOOOOOOOOOOOOOOOOOOOOOOOOOOOOOO",
"OOOOOOOOOOOOOOO...OOOOOOOOOOOOOOOOOOOOOO                                              OOOOOOOOOOOOOOOOOOOOOOOOOOOOOOOOOOOOOOOOOO",
"OOOOOOOOOOOOOOOOOOOOOOOOOOOOOOOOOOOOOO                                                  OOOOOOOOOOOOOOOOOOOOOOOOOOOOOOOOOOOOOOOO",
"OOOOOOOOOOOOOOOOOOOOOOOOOOOOOOOOOOOOOO                                                  OOOOOOOOOOOOOOOOOOOOOOOOOOOOOOOOOOOOOOOO",
"OOOOOOOOOOOOOOOOOOOOOOOOOOOOOOOOOOOO                                                      OOOOOOOOOOOOOOXOOOOOOOOOOOOOOOOOOOOOOO",
"OOOOOOOOOOOOOOOOOOOOOOOOOOOOOOOOOOOO                                                      OOOOOOOOOOOOOOXOOOOOOOOOOOOOOOOOOOOOOO",
"OOOOOOOOOOOOOOOOOOOOOOOOOOOOOOOO..                                                          OOOOOOOOOOOOXXOOOOOOOOOOOOOOOOOOOOOO",
"OOOOOOOOOOOOOOOOOOOOOOOOOOOOOOOO..                                                          OOOOOOOOOOOOXXOOOOOOOOOOOOOOOOOOOOOO",
"OOOOOOOOOOOOOOOOOOOOOOOOOOOOOOOO                                                              OOOOOOOOOOOOOOOOOOOOOOOOO..OOOOOOO",
"OOOOOOOOOOOOOOOOOOOOOOOOOOOOOOOO                                                              OOOOOOOOOOOOOOOOOOOOOOOOO..OOOOOOO",
"OOOOO..OOOOOOOOOOOOOOOOOOOOOOOOO                                                              OOOOOOOOOOOOOOOOOOOOOOOOO..OOOOOOO",
"OOOOO..OOOOOOOOOOOOOOOOOOOOOOOOO                                                              OOOOOOOOOOOOOOOOOOOOOOOOO..OOOOOOO",
"OOO..OOOO..OOOOOOOOOOOOOOOOOOO                                                                  OOOOOOOOOOOOOOOOOOOOOOOOOOOOOOOO",
"OOO..OOOO..OOOOOOOOOOOOOOOOOOO                                                                  OOOOOOOOOOOOOOOOOOOOOOOOOOOOOOOO",
"OOO..OOOO..OOOOOOOOOOOOOOOOOOO                                                                  XXOOOOOOOOOOooOOOOOOOOOOOOOOOOOO",
"OOO..OOOO..OOOOOOOOOOOOOOOOOOO                                                                  XXOOOOOOOOOOooOOOOOOOOOOOOOOOOOO",
"OOO..OOOOOOOOOOOOOOOOOOOOOOO                                                                      XXOOOOOOOOOOOOOOOOOOOOOOOOOOOO",
"OOO..OOOOOOOOOOOOOOOOOOOOOOO                                                                      XXOOOOOOOOOOOOOOOOOOOOOOOOOOOO",
"OOOooOOOOOOOOOOOOOOOOOOOOOOO                                                                      OOOOOOOOOOOOOOOOOOOOOOOOOOOOOO",
"OOOooOOOOOOOOOOOOOOOOOOOOOOO                                                                      OOOOOOOOOOOOOOOOOOOOOOOOOOOOOO",
"OOOooOOOOOOOOOOOOOOOOOOOOOOO                                                                      OOOOOOOOOOOOOOOOOOOOOOOOOOOOOO",
"OOOOOOOooOOOOOOOOOOOOOOOOOOO                                                                      OOOOOOOOOOOOOOOOOOOOOOOOOOOOOO",
"OOOOOOOooOOOOOOOOOOOOOOOOOOO                                                                      OOOOOOOOOOOOOOOOOOOOOOOOOOOOOO",
"OOOOOOOXXOOOOOOOOOOOOOOOOO                                                                          OOOOOOOOOOOOOOOOOOOOOOOooOOO",
"OOOOOOOXXOOOOOOOOOOOOOOOOO                                                                          OOOOOOOOOOOOOOOOOOOOOOOooOOO",
"OOOOOOOOOOOOOOOOOOOOOOOOOO                                                                          ooOOOOOOOOXXXOOOOOOOOOOOOOOO",
"OOOOOOOOOOOOOOOOOOOOOOOOOO                                                                          ooOOOOOOOOXXXOOOOOOOOOOOOOOO",
"OOOOOOOOOOOOOOOOOOOOOOOO..                                                                          ooOOOOOOOOoooOOOOOOOOOOXXOOO",
"OOOOOOOOOOOOOOOOOOOOOOOO..                                                                          ooOOOOOOOOoooOOOOOOOOOOXXOOO",
"OOOOOOOOOOOOOOOOOOOOOOOOXX                                                                          ooOOOOOOOOOOOOOOOOOOOOOOOOOO",
"OOOOOOOOOOOOOOOOOOOOOOOOXX                                                                          ooOOOOOOOOOOOOOOOOOOOOOOOOOO",
"OOOOOOOOOOOOOOOOOOOOOOOOXX                                                                          XXOOOOOOOOOOOOOOOOOOOOOooOOO",
"OOOOOOOOOOOOOOOOOOOOOOOOXX                                                                          XXOOOOOOOOOOOOOOOOOOOOOooOOO",
"O..OOOOOOOOOOOOOOOOOOOOOOO                                                                          OOOOOOOOOO...OOOOOOOOOOOOOOO",
"O..OOOOOOOOOOOOOOOOOOOOOOO                                                                          OOOOOOOOOO...OOOOOOOOOOOOOOO",
"OOOOOOOOOOOOOOOOOOOOOOOOOO                                                                          OOOOOOOOOOOOOOOOOOOOOOOXXOOO",
"OOOOOOOOOOOOOOOOOOOOOOOOOO                                                                          OOOOOOOOOOOOOOOOOOOOOOOXXOOO",
"OOOOOOOOOOOOOOOOOOOOOOOO..                                                                          OOOOOOOOOOXXXOOOOOOOOOOOOOOO",
"OOOOOOOOOOOOOOOOOOOOOOOO..                                                                          OOOOOOOOOOXXXOOOOOOOOOOOOOOO",
"OOOOOOO..OOOOOOOOOOOOOOO..OO                                                                      ooOOOOOOOOOOXXXOOOOOOOOOO..OOO",
"OOOOOOO..OOOOOOOOOOOOOOO..OO                                                                      ooOOOOOOOOOOXXXOOOOOOOOOO..OOO",
"OOOOOOOOO..OOOOOOOOOOOOOOOOO                                                                      XXOOOOOOOOOOOOOOOOOOOOO..OOOOO",
"OOOOOOOOO..OOOOOOOOOOOOOOOOO                                                                      XXOOOOOOOOOOOOOOOOOOOOO..OOOOO",
"OOOOOOOOO..OOOOOOOOOOOOOOOOO                                                                      XXOOOOOOOOOOOOOOOOOOOOO..OOOOO",
"OOOOOOOOOOOOOOOOOOOOOOOOOOOO                                                                      OOOOOOOOOOOOOOOOOOOOOOOOOOOOOO",
"OOOOOOOOOOOOOOOOOOOOOOOOOOOO                                                                      OOOOOOOOOOOOOOOOOOOOOOOOOOOOOO",
"OOOOOOOOO..OOOOOOOOOOOOOOOOOOO                                                                  OOOOOOOOOOOOXXOOOOOOOOOOO..OOOOO",
"OOOOOOOOO..OOOOOOOOOOOOOOOOOOO                                                                  OOOOOOOOOOOOXXOOOOOOOOOOO..OOOOO",
"OOOOOOOOO..OOOOOOOOOOOOOOOOOOO                                                                  OOOOOOOOOOOOOOOOOOOOOOOOO..OOOOO",
"OOOOOOOOO..OOOOOOOOOOOOOOOOOOO                                                                  OOOOOOOOOOOOOOOOOOOOOOOOO..OOOOO",
"OOOOO..OOOOOOOOOOOOOOOOOOOOOOOOO                                                              OOOOOOOOOOOOOOOOOOOOOOOOOOOOOOOOOO",
"OOOOO..OOOOOOOOOOOOOOOOOOOOOOOOO                                                              OOOOOOOOOOOOOOOOOOOOOOOOOOOOOOOOOO",
"OOOOOOOOOOOOOOOOOOOOOOOOOOOOOOOO                                                              OOOOOOOOOOOOOOOOOOOOOOOOOXXOOOOOOO",
"OOOOOOOOOOOOOOOOOOOOOOOOOOOOOOOO                                                              OOOOOOOOOOOOOOOOOOOOOOOOOXXOOOOOOO",
"OOOOOOOOOOOOOXXOOOOOOOOOOOOOOOOOOO                                                          XXOOOOOOOOOOooOOOOOOOOOOOOOOOOOOOOOO",
"OOOOOOOOOOOOOXXOOOOOOOOOOOOOOOOOOO                                                          XXOOOOOOOOOOooOOOOOOOOOOOOOOOOOOOOOO",
"OOOOOOOOOOOOOXXOOOOOOOOOOOOOOOOOOOOO                                                      OOooOOOOOOOOOOooOOOOOOOOOOOOOOOOOOOOOO",
"OOOOOOOOOOOOOXXOOOOOOOOOOOOOOOOOOOOO                                                      OOooOOOOOOOOOOooOOOOOOOOOOOOOOOOOOOOOO",
"OOOOOOOooOOOOOOOOOOOOOOOOOOOOOOOOOOOOO                                                  OOOOOOOOOOOOOOOOOOOOOOOOOOOOOOOOOOOOOOOO",
"OOOOOOOooOOOOOOOOOOOOOOOOOOOOOOOOOOOOO                                                  OOOOOOOOOOOOOOOOOOOOOOOOOOOOOOOOOOOOOOOO",
"OOOOOOOOOOOOOOOOOOOOOOOOOOOOOOOOOOOOOOOO                                              OOOOOOOOOOOOOOOOOOOOOOOOOOOOOXXOOOOOOOOOOO",
"OOOOOOOOOOOOOOOOOOOOOOOOOOOOOOOOOOOOOOOO                                              OOOOOOOOOOOOOOOOOOOOOOOOOOOOOXXOOOOOOOOOOO",
"OOOOOOOOOOOOOOOOOOXXOOOOOOOOOOOOOOOOOOOO..OO                                      ..OOOOOOOOOOOOOOOOOOOOOOOOOOOOOOOOOOOOOOOOOOOO",
"OOOOOOOOOOOOOOOOOOXXOOOOOOOOOOOOOOOOOOOO..OO                                      ..OOOOOOOOOOOOOOOOOOOOOOOOOOOOOOOOOOOOOOOOOOOO",
"OOOOOOOOOOOOOOOOOOXXOOOOOOOOOOOOOOOOOOOO..OO                                      ..OOOOOOOOOOOOOOOOOOOOOOOOOOOOOOOOOOOOOOOOOOOO",
"OOOOOOOOOOOOOOOOOOOOOOOOOOOOOOOOOOOOOOOOOOOOOO...                            OOOOO..OOOOOOOOOOOOOOOOOOOOOOOOOOOOOOOOOOOOOOOOOOOO",
"OOOOOOOOOOOOOOOOOOOOOOOOOOOOOOOOOOOOOOOOOOOOOO...                            OOOOO..OOOOOOOOOOOOOOOOOOOOOOOOOOOOOOOOOOOOOOOOOOOO",
"OOOOOOOOOOOOOXXOOOOOOOOOOOOOOOOOOOOOOOOOOOOOOOXXXOOOOOO                OOOO..OOOOOOOOOOOOOOOOOOOXXOOOOOOOOOOOOOOOOOOOOOOOOOOOOOO",
"OOOOOOOOOOOOOXXOOOOOOOOOOOOOOOOOOOOOOOOOOOOOOOXXXOOOOOO                OOOO..OOOOOOOOOOOOOOOOOOOXXOOOOOOOOOOOOOOOOOOOOOOOOOOOOOO",
"OOOOOOOOOOOOOXXOOOOOOOOOOOOOOOOOOOOOOOOOOOOOOOOOOOOOOooOOOOOOXXOOOOOOOOOOOOOOOOOOOOOOOOOOOOOOOOOOOOOOOOOOOOOOOOOOOOOOOOOOOOOOOOO",
"OOOOOOOOOOOOOXXOOOOOOOOOOOOOOOOOOOOOOOOOOOOOOOOOOOOOOooOOOOOOXXOOOOOOOOOOOOOOOOOOOOOOOOOOOOOOOOOOOOOOOOOOOOOOOOOOOOOOOOOOOOOOOOO",
"OOOOOOOOOOOOOOOOOOOOOOOOOOOOOOOOOOOOOOOOOOOOOOOOOOOOOOOOOOOOOOOOOOOOOOOOOOOOOOOOOOOOOOOOOOOOOOOOOOOOOOOOOOOOOOOOOOOOOOOOOOOOOOOO",
"OOOOOOOOOOOOOOOOOOOOOOOOOOOOOOOOOOOOOOOOOOOOOOOOOOOOOOOOOOOOOOOOOOOOOOOOOOOOOOOOOOOOOOOOOOOOOOOOOOOOOOOOOOOOOOOOOOOOOOOOOOOOOOOO",
"OOOOOOOOOOOOOOOOOOOOOOOOOOXXOOOOOOOOOOOOOOOOOOOOOOOOOOOOOOOOOOOOOOOOOOOOOOOOOOOOOOOOOOOOOOOOOOOOOOOOOOOOOOOOOOOOOOOOOOOOOOOOOOOO",
"OOOOOOOOOOOOOOOOOOOOOOOOOOXXOOOOOOOOOOOOOOOOOOOOOOOOOOOOOOOOOOOOOOOOOOOOOOOOOOOOOOOOOOOOOOOOOOOOOOOOOOOOOOOOOOOOOOOOOOOOOOOOOOOO",
"OOOOOOOOOOOOOOOOOOOOOOOOOOOOOOOOOOOOOOOOOOOOOOOOOOOOOOOOOOOOOOOOOOOOOOOOOOOOOOOOOOOOOOOOOOOOOOOOOOOOOOOOOOOOOOOOOOOOOOOOOOOOOOOO",
"OOOOOOOOOOOOOOOOOOOOOOOOOOOOOOOOOOOOOOOOOOOOOOOOOOOOOOOOOOOOOOOOOOOOOOOOOOOOOOOOOOOOOOOOOOOOOOOOOOOOOOOOOOOOOOOOOOOOOOOOOOOOOOOO",
"OOOOOOOOOOOOOOOOOOOOOOXXOOOOOOOOOOOOOOOOOOOOOOOOOOOOOOOOOOOOOOOOOOOOOOOOOOOOOOOOOOOOOOOOOOOOOOOOOOOOOO..OOOOOOOOOOOOOOOOOOOOOOOO",
"OOOOOOOOOOOOOOOOOOOOOOXXOOOOOOOOOOOOOOOOOOOOOOOOOOOOOOOOOOOOOOOOOOOOOOOOOOOOOOOOOOOOOOOOOOOOOOOOOOOOOO..OOOOOOOOOOOOOOOOOOOOOOOO",
"OOOOOOOOOOOOOOOOOOOOOOOOOOOOOOOOOOOO..OOOOOOOOOOOOOOOOOOOOOOOOOOOOOOOOOOOOOOOOOOOOOOOOOOOOOOOOOOOOOO..OOOOOOOOOOOOOOOOOOOOOOOOOO",
"OOOOOOOOOOOOOOOOOOOOOOOOOOOOOOOOOOOO..OOOOOOOOOOOOOOOOOOOOOOOOOOOOOOOOOOOOOOOOOOOOOOOOOOOOOOOOOOOOOO..OOOOOOOOOOOOOOOOOOOOOOOOOO",
"OOOOOOOOOOOOOOOOOOOOOOOOOOOOOOOOOOOOOOOOOOOOOOOOOOOOOOOOOOOOOOOOOOOOOOOOOOOOOOOOOOOOOOOOOOOOOOOOOOOOOOOOOOOOOOOOOOOOOOOOOOOOOOOO",
"OOOOOOOOOOOOOOOOOOOOOOOOOOOOOOOOOOOOOOOOOOOOOOOOOOOOOOOOOOOOOOOOOOOOOOOOOOOOOOOOOOOOOOOOOOOOOOOOOOOOOOOOOOOOOOOOOOOOOOOOOOOOOOOO",
"OOOOOOOOOOOOOOOOOOOOOOOOOOOOOOOO..OOOOOOOOOOOOOOOOOOOOOOOOOOOOOOOOOOOOOOOOOOOOOOOOOOOOOOOOOOOOOOOOOOOOOOOOOOOOOOOOOOOOOOOOOOOOOO",
"OOOOOOOOOOOOOOOOOOOOOOOOOOOOOOOO..OOOOOOOOOOOOOOOOOOOOOOOOOOOOOOOOOOOOOOOOOOOOOOOOOOOOOOOOOOOOOOOOOOOOOOOOOOOOOOOOOOOOOOOOOOOOOO",
"OOOOOOOOOOOOOOOOOOOOOOOOOOOOOOOO..OOOOOOOOOOOOOOOOOOOOOOOOOOOOOOOOOOOOOOOOOOOOOOOOOOOOOOOOOOOOOOOOOOOOOOOOOOOOOOOOOOOOOOOOOOOOOO",
"OOOOOOOOOOOOOOOOOOOOOOOOOOOOOOOOOOOO..OOOOOOOOOOOOOOOOOOOOOOOOOOOOOOOOOOOOOOOOOOOOOOOOOOOOOOOOOOOOOOOOOOOOOOOOOOOOOOOOOOOOOOOOOO",
"OOOOOOOOOOOOOOOOOOOOOOOOOOOOOOOOOOOO..OOOOOOOOOOOOOOOOOOOOOOOOOOOOOOOOOOOOOOOOOOOOOOOOOOOOOOOOOOOOOOOOOOOOOOOOOOOOOOOOOOOOOOOOOO",
"OOOOOOOOOOOOOOOOOOOOOOOOOOOOOOOOOOOOOOOOOOOOOOOOOOOOOOOOOOOOOOOOOOOOOOOOOOOOOOOOOOOOOOOOOOOOOOOOOOOOOOOOOOOOOOOOOOOOOOOOOOOOOOOO",
"OOOOOOOOOOOOOOOOOOOOOOOOOOOOOOOOOOOOOOOOOOOOOOOOOOOOOOOOOOOOOOOOOOOOOOOOOOOOOOOOOOOOOOOOOOOOOOOOOOOOOOOOOOOOOOOOOOOOOOOOOOOOOOOO",
"OOOOOOOOOOOOOOOOOOOOOOOOOOOOOOOOOOOOOOOOOOOOOOOOOOOOOOOOOOOOOOOOOOOOOOOOO..OOOOOOOOOOOOOOOOOOOOOOOOOOOOOOOOOOOOOOOOOOOOOOOOOOOOO",
"OOOOOOOOOOOOOOOOOOOOOOOOOOOOOOOOOOOOOOOOOOOOOOOOOOOOOOOOOOOOOOOOOOOOOOOOO..OOOOOOOOOOOOOOOOOOOOOOOOOOOOOOOOOOOOOOOOOOOOOOOOOOOOO",
"OOOOOOOOOOOOOOOOOOOOOOOOOOOOOOOOOOOOOOOOOOOOOOOOOOOOO..............OOOOOOOOOOOOOOOOOOOOOOOOOOOOOOOOOOOOOOOOOOOOOOOOOOOOOOOOOOOOO",
"OOOOOOOOOOOOOOOOOOOOOOOOOOOOOOOOOOOOOOOOOOOOOOOOOOOOO..............OOOOOOOOOOOOOOOOOOOOOOOOOOOOOOOOOOOOOOOOOOOOOOOOOOOOOOOOOOOOO",
"OOOOOOOOOOOOOOOOOOOOOOOOOOOOOOOOOOOOOOOOOOOOOOOOOOOOOOOOOOOOOOOOOOOOOOOOOOOOOOOOOOOOOOOOOOOOOOOOOOOOOOOOOOOOOOOOOOOOOOOOOOOOOOOO"
};
