/* XPM */
static char *result[] = {
/* columns rows colors chars-per-pixel */
"128 128 6 1 ",
"  c black",
". c #001540",
"X c #074890",
"o c #009CFF",
"O c white",
"+ c magenta",
/* pixels */
"++++++++++++++++++++++++++++++++++++++++++++++++++++++++++++++++++++++++++++++++++++++++++++++++++++++++++++++++++++++++++++++++",
"+++++++++++++++++++++++++++++++++++++++++++++++++++++++XX++++XX++++++++XX+++++++++++++++++++++++++++++++++++++++++++++++++++++++",
"+++++++++++++++++++++++++++++++++++++++++++++++++++++++XX++++XX++++++++XX+++++++++++++++++++++++++++++++++++++++++++++++++++++++",
"++++++++++++++++++++++++++++++++++++++++++++++OOOOOOO++++++++++++++++++++++ooooOOO++++++++++++++++++++++++++++++++++++++++++++++",
"++++++++++++++++++++++++++++++++++++++++++++++OOOOOOO++++++++++++++++++++++ooooOOO++++++++++++++++++++++++++++++++++++++++++++++",
"++++++++++++++++++++++++++++++++++++++++++OO++++++++++++++++++++++++++++++++++++++XX++++++++++++++++++++++++++++++++++++++++++++",
"++++++++++++++++++++++++++++++++++++++++++OO++++++++++++++++++++++++++++++++++++++XX++++++++++++++++++++++++++++++++++++++++++++",
"++++++++++++++++++++++++++++++++++++++++++++++++++++++++++++++++++++++++++++++++++++++++++++++++++++++++++++++++++++++++++++++++",
"++++++++++++++++++++++++++++++++++++++++++++++++++++++++++++++++++++++++++++++++++++++++++++++++++++++++++++++++++++++++++++++++",
"++++++++++++++++++++++++++++++++XX++++++++++++++++++++++++++++++++++++++++++++++++++++++++++++++++++++++++++++++++++++++++++++++",
"++++++++++++++++++++++++++++++++XX++++++++++++++++++++++++++++++++++++++++++++++++++++++++++++++++++++++++++++++++++++++++++++++",
"++++++++++++++++++++++++++++++++XX++++++++++++++++++++++++++++++++++++++++++++++++++++++++++++++++++++++++++++++++++++++++++++++",
"+++++++++++++++++++++++++++++++++++++++++++++++++++++++++++++++++++++XX+++++++++++++++++++++++++++++++++++++++++++++++++++++++++",
"+++++++++++++++++++++++++++++++++++++++++++++++++++++++++++++++++++++XX+++++++++++++++++++++++++++++++++++++++++++++++++++++++++",
"++++++++++++++++++++++++++OO+++++++++++++++++++++++++++++++++++++++++++++++++XX+++++++++++++++++++OO++++++++++++++++++++++++++++",
"++++++++++++++++++++++++++OO+++++++++++++++++++++++++++++++++++++++++++++++++XX+++++++++++++++++++OO++++++++++++++++++++++++++++",
"++++++++++++++++++++++oo++++++++++++++++++++++++++++++++++++++++++++++++++++++++++++++++++++++++++++++++++++++++++++++++++++++++",
"++++++++++++++++++++++oo++++++++++++++++++++++++++++++++++++++++++++++++++++++++++++++++++++++++++++++++++++++++++++++++++++++++",
"++++++++++++++++++++++++++++++++++++++++++++++++++++++++++++++++++++++++++++++++++++++++++++++++++++++++++++++++++++++++++++++++",
"++++++++++++++++++++++++++++++++++++++++++++++++++++++++++++++++++++++++++++++++++++++++++++++++++++++++++++++++++++++++++++++++",
"++++++++++++++++++++++++++++++++++++++++++++++++++++++++++++++++++++++++++++++++++++++++oo++++++++++++++++++++++++++++++++++++++",
"++++++++++++++++++++++++++++++++++++++++++++++++++++++++++++++++++++++++++++++++++++++++oo++++++++++++++++++++++++++++++++++++++",
"+++++++++++++++ooo++++++++++++++++++++++++++++++++++++++++++++++++++++++++++++++++++++++++++++++++++++++++++XX++++++++++++++++++",
"+++++++++++++++ooo++++++++++++++++++++++++++++++++++++++++++++++++++++++++++++++++++++++++++++++++++++++++++XX++++++++++++++++++",
"+++++++++++++++++++++++++++++++++++++++++++++++++++++oo++++XX++++++OO+++++++++++++++++++++++++++++++++++++++++XXX+++++++++++++++",
"+++++++++++++++++++++++++++++++++++++++++++++++++++++oo++++XX++++++OO+++++++++++++++++++++++++++++++++++++++++XXX+++++++++++++++",
"+++++++++++++XX+++++++++++++++++++++++++++++++XXX++ooXX                ++++++OO+++++++++++++++++XX++++++++++++++++++++++++++++++",
"+++++++++++++XX+++++++++++++++++++++++++++++++XXX++ooXX                ++++++OO+++++++++++++++++XX++++++++++++++++++++++++++++++",
"+++++++++++oo+++++++++++++++++++++++++++++OO+++++                            XX+++++++++++++++++++XX+++++++++++++XX+++++++++++++",
"+++++++++++oo+++++++++++++++++++++++++++++OO+++++                            XX+++++++++++++++++++XX+++++++++++++XX+++++++++++++",
"++++++++++++++++++++++++++++++++++++++XX++oo                                      +++++++++++++++++++++++++++++++++XX+++++++++++",
"++++++++++++++++++++++++++++++++++++++XX++oo                                      +++++++++++++++++++++++++++++++++XX+++++++++++",
"++++++++++++++++++++++++++++++++++++++XX++oo                                      +++++++++++++++++++++++++++++++++XX+++++++++++",
"++++++++++++++++++++++++++++++++++++oooo                                              ++++++++++++++oo++++++++++++++++++++++++++",
"++++++++++++++++++++++++++++++++++++oooo                                              ++++++++++++++oo++++++++++++++++++++++++++",
"++++++++++++++++++++++++++++++++++++++                                                  ++oo++++++++++oo+++++++++++++oo+++++++++",
"++++++++++++++++++++++++++++++++++++++                                                  ++oo++++++++++oo+++++++++++++oo+++++++++",
"+++++++XX+++++++++++++++++++++++++oo                                                      oo++++++++++++++++++++++++++++++++++++",
"+++++++XX+++++++++++++++++++++++++oo                                                      oo++++++++++++++++++++++++++++++++++++",
"++++++++++++++++++++++++++++++++++                                                          ++++++++++++XX++++++++++++++++++++++",
"++++++++++++++++++++++++++++++++++                                                          ++++++++++++XX++++++++++++++++++++++",
"++++++++++++++++++++++++++++++++                                                              ++++++++++++++++++++++++++++++++++",
"++++++++++++++++++++++++++++++++                                                              ++++++++++++++++++++++++++++++++++",
"+++++OO+++++++++++++++++++++++++                                                              ++++++++++++++++++++++++++++++++++",
"+++++OO+++++++++++++++++++++++++                                                              ++++++++++++++++++++++++++++++++++",
"++++++++++++++++++++++++++++++                                                                  ++++++++++++++++++++++++++++++++",
"++++++++++++++++++++++++++++++                                                                  ++++++++++++++++++++++++++++++++",
"++++++++++++++++++++++++++XXXX                                                                  ++++++++++++++++++++++++++++++++",
"++++++++++++++++++++++++++XXXX                                                                  ++++++++++++++++++++++++++++++++",
"++++++++++++++++++++++++++++                                                                      ++++++++++++++++++++++++++++++",
"++++++++++++++++++++++++++++                                                                      ++++++++++++++++++++++++++++++",
"++++++++++++++++++++++++++++                                                                      OO++++++++++++++++++++++++++++",
"++++++++++++++++++++++++++++                                                                      OO++++++++++++++++++++++++++++",
"++++++++++++++++++++++++++++                                                                      OO++++++++++++++++++++++++++++",
"+XX+++++++++++++++++++++++++                                                                      ..XX++++++++++++++++++++++++++",
"+XX+++++++++++++++++++++++++                                                                      ..XX++++++++++++++++++++++++++",
"+XX+++++++++++++++++++++++                                                                          XX++++++++++++++++++++++++++",
"+XX+++++++++++++++++++++++                                                                          XX++++++++++++++++++++++++++",
"++++++++++++++++++++++++oo                                                                          ++++++++++++++++++++++++++++",
"++++++++++++++++++++++++oo                                                                          ++++++++++++++++++++++++++++",
"++++++++++++++++++++++++++                                                                          +++++++++++++++++++++++XX+++",
"++++++++++++++++++++++++++                                                                          +++++++++++++++++++++++XX+++",
"+++++++XX+++++++++++++++++                                                                          OO++++++++OOO+++++++++++++++",
"+++++++XX+++++++++++++++++                                                                          OO++++++++OOO+++++++++++++++",
"+++++++oo+++++++++++++++++                                                                          ++++++++++OOO+++++++++++++++",
"+++++++oo+++++++++++++++++                                                                          ++++++++++OOO+++++++++++++++",
"++++++++++++++++++++++++XX                                                                          ++++++++++OOO++++++++++oo+++",
"++++++++++++++++++++++++XX                                                                          ++++++++++OOO++++++++++oo+++",
"+oo+++++++++++++++++++++++                                                                          XX++++++++++++++++++++++++++",
"+oo+++++++++++++++++++++++                                                                          XX++++++++++++++++++++++++++",
"++++++++++++++++++++++++++                                                                          XX++++++++++++++++++++++++++",
"++++++++++++++++++++++++++                                                                          XX++++++++++++++++++++++++++",
"+oo++++XX+++++++++++++++++++                                                                      ++oo++++++++++++++++++++++++++",
"+oo++++XX+++++++++++++++++++                                                                      ++oo++++++++++++++++++++++++++",
"+++oo+++++++++++++++++++++++                                                                      ++++++++++++++++++++++++++++++",
"+++oo+++++++++++++++++++++++                                                                      ++++++++++++++++++++++++++++++",
"+++oo+++++++++++++++++++++++                                                                      ++++++++++++++++++++++++++++++",
"+++OO+++++++++++++++++++++oo                                                                      ++++++++++oo++++++++++++++++++",
"+++OO+++++++++++++++++++++oo                                                                      ++++++++++oo++++++++++++++++++",
"+++XX+++++++++++++++++++++++++                                                                  ooXX++++++++++++++++++++++++++++",
"+++XX+++++++++++++++++++++++++                                                                  ooXX++++++++++++++++++++++++++++",
"+++++++++oo+++++++++++++++++++                                                                  oo++++++++++++++++++++++++++++++",
"+++++++++oo+++++++++++++++++++                                                                  oo++++++++++++++++++++++++++++++",
"+++++++++++oo+++++++++++++++++++                                                              ++oo+++++++++++++++++++++XX+++++++",
"+++++++++++oo+++++++++++++++++++                                                              ++oo+++++++++++++++++++++XX+++++++",
"+++++++++++oo+++++++++++++++++OO                                                              ++++++++++++XX++++++++++++++++++++",
"+++++++++++oo+++++++++++++++++OO                                                              ++++++++++++XX++++++++++++++++++++",
"+++++++++++++oo+++++++++++++++++++                                                          XX+++++++++++++++++++++++++oo+++++++",
"+++++++++++++oo+++++++++++++++++++                                                          XX+++++++++++++++++++++++++oo+++++++",
"+++++++++++++oo+++++++++++++++++++++                                                      ++XX++++++++++++++++++++++++++++++++++",
"+++++++++++++oo+++++++++++++++++++++                                                      ++XX++++++++++++++++++++++++++++++++++",
"+++++++oo+++++++++++++++++++++++++++XX                                                  oooo++++++++++++++++++++++++++++++++++++",
"+++++++oo+++++++++++++++++++++++++++XX                                                  oooo++++++++++++++++++++++++++++++++++++",
"+++++++++++++++ooo++++++++++++++++++++OO                                              +++++++++++++++++++++++++++++XX+++++++++++",
"+++++++++++++++ooo+++++++++++++++++++++O                                              +++++++++++++++++++++++++++++XX+++++++++++",
"++++++++++++++++++++++++++++++++++++++++++++                                      ++++++++++++++++++oo++++++++++++++++++++++++++",
"++++++++++++++++++++++++++++++++++++++++++++                                      ++++++++++++++++++oo++++++++++++++++++++++++++",
"++++++++++++++++++++++++++++++++++++++++++++                                      ++++++++++++++++++oo++++++++++++++++++++++++++",
"+++++++++++++++++++++++++++++++++++++++++++++++++                            ++ooo++++++++++++++++++++++++++++++++++++++++++++++",
"+++++++++++++++++++++++++++++++++++++++++++++++++                            ++ooo++++++++++++++++++++++++++++++++++++++++++++++",
"+++++++++++++++++++++++++++++++++++++++++++++++++oo++++                +++++++++++++++++++++++++++++++++++++++ooo+++++++++++++++",
"+++++++++++++++++++++++++++++++++++++++++++++++++oo++++                +++++++++++++++++++++++++++++++++++++++ooo+++++++++++++++",
"++++++++++++++++++++++oo+++++++++++++++++++++++++++++++++++XX++++XX+++++++++++++++++++++++++++++++++++++++++++++++++++++++++++++",
"++++++++++++++++++++++oo+++++++++++++++++++++++++++++++++++XX++++XX+++++++++++++++++++++++++++++++++++++++++++++++++++++++++++++",
"+++++++++++++++ooo++++++XX++++++++++++++++++++++++++++++++++++++++++++++++++++++++++++++++++++++++++++++++++++++++++++++++++++++",
"+++++++++++++++ooo++++++XX++++++++++++++++++++++++++++++++++++++++++++++++++++++++++++++++++++++++++++++++++++++++++++++++++++++",
"++++++++++++++++++++++++++++++++++++++++++++++++++++++++++++++++++++++++++++++++++++++++XX++++++++++++++++++++++++++++++++++++++",
"++++++++++++++++++++++++++++++++++++++++++++++++++++++++++++++++++++++++++++++++++++++++XX++++++++++++++++++++++++++++++++++++++",
"++++++++++++++++++++++++++++++++++++++++++++++++++++++++++++++++++++++++++++++++++++++++++++++++++++++++++++++++++++++++++++++++",
"++++++++++++++++++++++++++++++++++++++++++++++++++++++++++++++++++++++++++++++++++++++++++++++++++++++++++++++++++++++++++++++++",
"++++++++++++++++++++++XX++++++++++++++++++++++++++++++++++++++++++++++++++++++++++++++++++++++++++++++++++++++++++++++++++++++++",
"++++++++++++++++++++++XX++++++++++++++++++++++++++++++++++++++++++++++++++++++++++++++++++++++++++++++++++++++++++++++++++++++++",
"++++++++++++++++++++++++++++++++++++oo++++++++++++++++++++++++++++++++++++++++++++++++++++++++++++++++++++++++++++++++++++++++++",
"++++++++++++++++++++++++++++++++++++oo++++++++++++++++++++++++++++++++++++++++++++++++++++++++++++++++++++++++++++++++++++++++++",
"++++++++++++++++++++++++++++++++++++++++++++++++++++++++++++++++++++++++++++++++++++++++++++++++++++++++++++++++++++++++++++++++",
"++++++++++++++++++++++++++++++++++++++++++++++++++++++++++++++++++++++++++++++++++++++++++++++++++++++++++++++++++++++++++++++++",
"++++++++++++++++++++++++++++++++++++++++++++++++++++++++++++++++++++++++++++++++++++++++++++++++++++++++++++++++++++++++++++++++",
"++++++++++++++++++++++++++++++++++++++++++++++++++++++++++++++++++++++++++++++++++++++++++++++++++++++++++++++++++++++++++++++++",
"++++++++++++++++++++++++++++++++++++++++++++++++++++++++++++++++++++++++++++++++++++++++++++++++++++++++++++++++++++++++++++++++",
"++++++++++++++++++++++++++++++++++++++++++++++++++++++++++++++++++++++++++++++++++++++++++++++++++++++++++++++++++++++++++++++++",
"++++++++++++++++++++++++++++++++++++++++++++++++++++++++++++++++++++++++++++++++++++++++++++++++++++++++++++++++++++++++++++++++",
"++++++++++++++++++++++++++++++++++++++++++++++++++++++++++++++++++++++++++++++++++XX++++++++++++++++++++++++++++++++++++++++++++",
"++++++++++++++++++++++++++++++++++++++++++++++++++++++++++++++++++++++++++++++++++XX++++++++++++++++++++++++++++++++++++++++++++",
"+++++++++++++++++++++++++++++++++++++++++++++++++++++++++++++++++++++++++++++++XXX++++++++++++++++++++++++++++++++++++++++++++++",
"+++++++++++++++++++++++++++++++++++++++++++++++++++++++++++++++++++++++++++++++XXX++++++++++++++++++++++++++++++++++++++++++++++",
"+++++++++++++++++++++++++++++++++++++++++++++++++++++++++XX+++++++++++++++++++++++++++++++++++++++++++++++++++++++++++++++++++++",
"+++++++++++++++++++++++++++++++++++++++++++++++++++++++++XX+++++++++++++++++++++++++++++++++++++++++++++++++++++++++++++++++++++",
"X+++++++++++++++++++++++++++++++++++++++++++++++++++++++++++++++++++++++++++++++++++++++++++++++++++++++++++++++++++++++++++++++"
};
