/* XPM */
static char *result[] = {
/* columns rows colors chars-per-pixel */
"128 128 6 1 ",
"  c black",
". c #001136",
"X c #074890",
"o c #009CFF",
"O c white",
"+ c magenta",
/* pixels */
"++++++++++++++++++++++++++++++++++++++++++++++++++++++++++++++++++++++++++++++++++++++++++++++++++++++++++++++++++++++++++++++++",
"+++++++++++++++++++++++++++++++++++++++++++++++++++++++XXXX++XXXXXXXXXX+++++++++++++++++++++++++++++++++++++++++++++++++++++++++",
"+++++++++++++++++++++++++++++++++++++++++++++++++++++++XXXX++XXXXXXXXXX+++++++++++++++++++++++++++++++++++++++++++++++++++++++++",
"++++++++++++++++++++++++++++++++++++++++++++XXXXXXXXX++++++++++++++++++++XX++XX+++++++++++++++++++++++++++++++++++++++++++++++++",
"++++++++++++++++++++++++++++++++++++++++++++XXXXXXXXX++++++++++++++++++++XX++XX+++++++++++++++++++++++++++++++++++++++++++++++++",
"++++++++++++++++++++++++++++++++++++++++++++++++++++++++++++++++++++++++++++++++++XXXXXX++++++++++++++++++++++++++++++++++++++++",
"++++++++++++++++++++++++++++++++++++++++++++++++++++++++++++++++++++++++++++++++++XXXXXX++++++++++++++++++++++++++++++++++++++++",
"++++++++++++++++++++++++++++++++++++++++++++++++++++++++++++++++++++++++++++++++++++++++XXXX++++++++++++++++++++++++++++++++++++",
"++++++++++++++++++++++++++++++++++++++++++++++++++++++++++++++++++++++++++++++++++++++++XXXX++++++++++++++++++++++++++++++++++++",
"++++++++++++++++++++++++++++++++++++++++++++++++++++++++++++++++++++++++++++++++++++++++++++XXXX++++++++++++++++++++++++++++++++",
"++++++++++++++++++++++++++++++++++++++++++++++++++++++++++++++++++++++++++++++++++++++++++++XXXX++++++++++++++++++++++++++++++++",
"++++++++++++++++++++++++++++++++++++++++++++++++++++++++++++++++++++++++++++++++++++++++++++XXXX++++++++++++++++++++++++++++++++",
"+++++++++++++++++++++++++++++++++++++++++++++++++++++++++++++++++++++XX+++++++++++++++++++++++++++++++++++++++++++++++++++++++++",
"+++++++++++++++++++++++++++++++++++++++++++++++++++++++++++++++++++++XX+++++++++++++++++++++++++++++++++++++++++++++++++++++++++",
"+++++++++++++++++++++++++++++++++++++++++++++++++++++++++++++++++++++++++++++oo+++++++++++++++++++++++++++++++++++++++++++++++++",
"+++++++++++++++++++++++++++++++++++++++++++++++++++++++++++++++++++++++++++++oo+++++++++++++++++++++++++++++++++++++++++++++++++",
"++++++++++++++++++++++oo++++++++++++++++++++++++++++++++++++++++++++++++++++++++++++++++++++++++++++++oo++++++++++++++++++++++++",
"++++++++++++++++++++++oo++++++++++++++++++++++++++++++++++++++++++++++++++++++++++++++++++++++++++++++oo++++++++++++++++++++++++",
"++++++++++++++++++++XX++++++++++++++++++++++++++++++++++++++++++++++++++++++++++++++++++++++++++++++++++++++++++++++++++++++++++",
"++++++++++++++++++++XX++++++++++++++++++++++++++++++++++++++++++++++++++++++++++++++++++++++++++++++++++++++++++++++++++++++++++",
"++++++++++++++++++++++++++++++++++++++++++++++++++++++++++++++++++++++++++++++++++++++++++++++++++++++++++++++++++++++++++++++++",
"++++++++++++++++++++++++++++++++++++++++++++++++++++++++++++++++++++++++++++++++++++++++++++++++++++++++++++++++++++++++++++++++",
"++++++++++++++++++++++++++++++++++++++++++++++++++++++++++++++++++++++++++++++++++++++++++++++++++++++++++++++++++++++++++++++++",
"++++++++++++++++++++++++++++++++++++++++++++++++++++++++++++++++++++++++++++++++++++++++++++++++++++++++++++++++++++++++++++++++",
"+++++++++++++++++++++++++++++++++++++++++++++++++++++++++++++oooo+++++++++++++++++++++++++++++++++++++++++++++++++++++++++++++++",
"+++++++++++++++++++++++++++++++++++++++++++++++++++++++++++++oooo+++++++++++++++++++++++++++++++++++++++++++++++++++++++++++++++",
"+++++++++++++++++++++++++++++++++++++++++++++++++++++++                ++XX++XX+++++++++++++++++++++++++++++++++++++++++++++++++",
"+++++++++++++++++++++++++++++++++++++++++++++++++++++++                ++XX++XX+++++++++++++++++++++++++++++++++++++++++++++++++",
"++++++++++++++++++++++++++++++++++++++++++oo++XXX                            ..XXX++++++++++++++++oo++++++++++++++++++++++++++++",
"++++++++++++++++++++++++++++++++++++++++++oo++XXX                            ..XXX++++++++++++++++oo++++++++++++++++++++++++++++",
"++++++++++++++++++++++++++++++++++++++++XXXX                                      XX++++++++++++++++++++++++++++++++++++++++++++",
"++++++++++++++++++++++++++++++++++++++++XXXX                                      XX++++++++++++++++++++++++++++++++++++++++++++",
"++++++++++++++++++++++++++++++++++++++++XXXX                                      XX++++++++++++++++++++++++++++++++++++++++++++",
"+++++++++XX++++OOO++++++++++++++++++++++                                              ++++++++++++++XX++++++++++++++++++++++++++",
"+++++++++XX++++OOO++++++++++++++++++++++                                              ++++++++++++++XX++++++++++++++++++++++++++",
"+++++++XX+++++++++++++++++++++++++++++                                                  ++oo++++++++++XX++++++++++++++++++++++++",
"+++++++XX+++++++++++++++++++++++++++++                                                  ++oo++++++++++XX++++++++++++++++++++++++",
"+++++++XX+++++++++++++++++++++++++++                                                      ++++++++++++++XX+++++++++++OO+++++++++",
"+++++++XX+++++++++++++++++++++++++++                                                      ++++++++++++++XX+++++++++++OO+++++++++",
"+++++XX+++++++++++++++++++++++++++                                                          ++oo++++++++++++++++++++++++++++++++",
"+++++XX+++++++++++++++++++++++++++                                                          ++oo++++++++++++++++++++++++++++++++",
"+++++XX+++++++++++++++++++++++++                                                              oo++++++++++++++++++++++++++++++++",
"+++++XX+++++++++++++++++++++++++                                                              oo++++++++++++++++++++++++++++++++",
"+++++XX+++++++++++++++++++++++++                                                              ooXX++++++++++++++++++++++++++++++",
"+++++XX+++++++++++++++++++++++++                                                              ooXX++++++++++++++++++++++++++++++",
"++++++++++++++++++++++++++++++                                                                  oo+++++++++++++++++++++++XX+++++",
"++++++++++++++++++++++++++++++                                                                  oo+++++++++++++++++++++++XX+++++",
"+++oo++++oo+++++++++++++++oooo                                                                  oo++++++++++++++++++++++++++++++",
"+++oo++++oo+++++++++++++++oooo                                                                  oo++++++++++++++++++++++++++++++",
"++++++++++++++++++++++++++++                                                                      oo++++++++OO++++++++++++++++++",
"++++++++++++++++++++++++++++                                                                      oo++++++++OO++++++++++++++++++",
"++++++++++++++++++++++++++++                                                                      ++++++++++oo++++++++++++++++++",
"++++++++++++++++++++++++++++                                                                      ++++++++++oo++++++++++++++++++",
"++++++++++++++++++++++++++++                                                                      ++++++++++oo++++++++++++++++++",
"+XX++++XX+++++++++++++++XXXX                                                                      OOOO++++++++++++++++++++++++++",
"+XX++++XX+++++++++++++++XXXX                                                                      OOOO++++++++++++++++++++++++++",
"+XX+++++++++++++++++++++oo                                                                          ++++++++++++++++++++++++++++",
"+XX+++++++++++++++++++++oo                                                                          ++++++++++++++++++++++++++++",
"+oo++++oo+++++++++++++++++                                                                          ++++++++++ooo++++++++++XX+++",
"+oo++++oo+++++++++++++++++                                                                          ++++++++++ooo++++++++++XX+++",
"+oo++++oo+++++++++++++++oo                                                                          ++++++++++++++++++++++++++++",
"+oo++++oo+++++++++++++++oo                                                                          ++++++++++++++++++++++++++++",
"+XX+++++++++++++++++++++++                                                                          +++++++++++++++++++++++oo+++",
"+XX+++++++++++++++++++++++                                                                          +++++++++++++++++++++++oo+++",
"++++++++++++++++++++++++XX                                                                          XX++++++++++++++++++++++++++",
"++++++++++++++++++++++++XX                                                                          XX++++++++++++++++++++++++++",
"++++++++++++++++++++++++++                                                                          XX+++++++++++++++++++++XX+++",
"++++++++++++++++++++++++++                                                                          XX+++++++++++++++++++++XX+++",
"+XX+++++++++++++++++++++++                                                                          XX+++++++++++++++++++++XX+++",
"+XX+++++++++++++++++++++++                                                                          XX+++++++++++++++++++++XX+++",
"++++++++++++++++++++++++OO                                                                          ++++++++++++++++++++++++++++",
"++++++++++++++++++++++++OO                                                                          ++++++++++++++++++++++++++++",
"+++++++XX+++++++++++++++++++                                                                      oo++++++++++++++++++++++++++++",
"+++++++XX+++++++++++++++++++                                                                      oo++++++++++++++++++++++++++++",
"+++XX++++XX+++++++++++++++++                                                                      +++++++++++++++++++++++XX+++++",
"+++XX++++XX+++++++++++++++++                                                                      +++++++++++++++++++++++XX+++++",
"+++XX++++XX+++++++++++++++++                                                                      +++++++++++++++++++++++XX+++++",
"++++++++++++++++++++++++++++                                                                      ++++++++++++++++++++++++++++++",
"++++++++++++++++++++++++++++                                                                      ++++++++++++++++++++++++++++++",
"++++++++++++++++++++++++++++++                                                                  ++++++++++++++++++++++++++++++++",
"++++++++++++++++++++++++++++++                                                                  ++++++++++++++++++++++++++++++++",
"++++++++++++++++++++++++++++++                                                                  ++++++++++++XX+++++++++++OO+++++",
"++++++++++++++++++++++++++++++                                                                  ++++++++++++XX+++++++++++OO+++++",
"+++++XX+++++++++++++++++++++++++                                                              ++XX+++++++++++++++++++++XX+++++++",
"+++++XX+++++++++++++++++++++++++                                                              ++XX+++++++++++++++++++++XX+++++++",
"+++++XX+++++++++++++++++++++++++                                                              ++++++++++++++++++++++++++++++++++",
"+++++XX+++++++++++++++++++++++++                                                              ++++++++++++++++++++++++++++++++++",
"+++++XX+++++++++++++++++++++++++oo                                                          ++oo++++++++OO++++++++++++++++++++++",
"+++++XX+++++++++++++++++++++++++oo                                                          ++oo++++++++OO++++++++++++++++++++++",
"++++++++++++++++++++++++++++++++++++                                                      ++++++++++++++oo+++++++++++OO+++++++++",
"++++++++++++++++++++++++++++++++++++                                                      ++++++++++++++oo+++++++++++OO+++++++++",
"++++++++++++++++++++++++++++++++++++++                                                  ++XX++++++++++OO+++++++++++++oo+++++++++",
"++++++++++++++++++++++++++++++++++++++                                                  ++XX++++++++++OO+++++++++++++oo+++++++++",
"++++++++++++++++++++++++++++++++++++++++                                              XX++++++++++++XX++++++++++++++++++++++++++",
"++++++++++++++++++++++++++++++++++++++++                                              XX++++++++++++XX++++++++++++++++++++++++++",
"++++++++++++++++++++++++++++++++++++++XX++++                                      ++++XX++++++++++++oo++++++++++++++++++++++++++",
"++++++++++++++++++++++++++++++++++++++XX++++                                      ++++XX++++++++++++oo++++++++++++++++++++++++++",
"++++++++++++++++++++++++++++++++++++++XX++++                                      ++++XX++++++++++++oo++++++++++++++++++++++++++",
"+++++++++++++++++++++++++++++++++++++++++++++++++                            +++++++++++++++++++++OO++++++++++++++++++++++++++++",
"+++++++++++++++++++++++++++++++++++++++++++++++++                            +++++++++++++++++++++OO++++++++++++++++++++++++++++",
"+++++++++++++++++++++++++++++++++++++++++++++++++++++++                ++++oo+++++++++++++++++++XX++++++++++++XXX+++++++++++++++",
"+++++++++++++++++++++++++++++++++++++++++++++++++++++++                ++++oo+++++++++++++++++++XX++++++++++++XXX+++++++++++++++",
"++++++++++++++++++++++XX+++++++++++++++++++++++++++++++++++OO++++++OOXX+++++++++++++++++++++++XX++++++++++++++XXX+++++++++++++++",
"++++++++++++++++++++++XX+++++++++++++++++++++++++++++++++++OO++++++OOXX+++++++++++++++++++++++XX++++++++++++++XXX+++++++++++++++",
"+++++++++++++++XXX++++++XX++++++++++++++++++++++++++++++++++++++++++++++++++++++++++++++++++XX++++++++++++++++++++++++++++++++++",
"+++++++++++++++XXX++++++XX++++++++++++++++++++++++++++++++++++++++++++++++++++++++++++++++++XX++++++++++++++++++++++++++++++++++",
"++++++++++++++++++XX++++++++++++++++++++++++++++++++++++++++++++++++++++++++++++++++++++++++++++++++++++++++++++++++++++++++++++",
"++++++++++++++++++XX++++++++++++++++++++++++++++++++++++++++++++++++++++++++++++++++++++++++++++++++++++++++++++++++++++++++++++",
"++++++++++++++++++++++++++++++++++++++++++++++++++++++++++++++++++++++++++++++++++++++XX++++++++++++++++OO++++++++++++++++++++++",
"++++++++++++++++++++++++++++++++++++++++++++++++++++++++++++++++++++++++++++++++++++++XX++++++++++++++++OO++++++++++++++++++++++",
"++++++++++++++++++++++++++++++++++++++++++++++++++++++++++++++++++++++++++++++++++OO++++++++++++++++++++++++++++++++++++++++++++",
"++++++++++++++++++++++++++++++++++++++++++++++++++++++++++++++++++++++++++++++++++OO++++++++++++++++++++++++++++++++++++++++++++",
"++++++++++++++++++++++++++++++++++++++++++++++++++++++++++++++++++++++++++++++++++++++++++++++++++++++++++++++++++++++++++++++++",
"++++++++++++++++++++++++++++++++++++++++++++++++++++++++++++++++++++++++++++++++++++++++++++++++++++++++++++++++++++++++++++++++",
"++++++++++++++++++++++++++++++++++++++++++++++++++++++++++++++++++++++++++++++++++++++++++++++++++++++++++++++++++++++++++++++++",
"++++++++++++++++++++++++++++++++++++++++++++++++++++++++++++++++++++++++++++++++++++++++++++++++++++++++++++++++++++++++++++++++",
"++++++++++++++++++++++++++++++++++++++++++++++++++++++++++++++++++++++++++++++++++++++++++++XXoo++++++++++++++++++++++++++++++++",
"++++++++++++++++++++++++++++++++++++++++++++++++++++++++++++++++++++++++++++++++++++++++++++XXoo++++++++++++++++++++++++++++++++",
"++++++++++++++++++++++++++++++++++++++++++++++++++++++++++++++++++++++++++++++++++++++++++++XXoo++++++++++++++++++++++++++++++++",
"++++++++++++++++++++++++++++++++++++++++++++++++++++++++++++++++++++++++++++++++++++++++++++++++++++++++++++++++++++++++++++++++",
"++++++++++++++++++++++++++++++++++++++++++++++++++++++++++++++++++++++++++++++++++++++++++++++++++++++++++++++++++++++++++++++++",
"++++++++++++++++++++++++++++++++++++++++++XX++++++++++++++++++++++++++++++++++++++++++XX++++++++++++++++++++++++++++++++++++++++",
"++++++++++++++++++++++++++++++++++++++++++XX++++++++++++++++++++++++++++++++++++++++++XX++++++++++++++++++++++++++++++++++++++++",
"+++++++++++++++++++++++++++++++++++++++++++++++++++++++++++++++++++++++++++XX+++++++++++++++++++++++++++++++++++++++++++++++++++",
"+++++++++++++++++++++++++++++++++++++++++++++++++++++++++++++++++++++++++++XX+++++++++++++++++++++++++++++++++++++++++++++++++++",
"+++++++++++++++++++++++++++++++++++++++++++++++++++++++++++++++++++++oo+++++++++++++++++++++++++++++++++++++++++++++++++++++++++",
"+++++++++++++++++++++++++++++++++++++++++++++++++++++++++++++++++++++oo+++++++++++++++++++++++++++++++++++++++++++++++++++++++++",
"++++++++++++++++++++++++++++++++++++++++++++++++++++++++++++++++++++++++++++++++++++++++++++++++++++++++++++++++++++++++++++++++"
};
