/* XPM */
static char *result[] = {
/* columns rows colors chars-per-pixel */
"128 128 6 1 ",
"  c black",
". c #001136",
"X c #074890",
"o c #009CFF",
"O c white",
"+ c magenta",
/* pixels */
"++++++++++++++++++++++++++++++++++++++++++++++++++++++++++++++++++++++++++++++++++++++++++++++++++++++++++++++++++++++++++++++++",
"+++++++++++++++++++++++++++++++++++++++++++++++++++++++++++XXXXXX++++XXXX+++++++++++++++++++++++++++++++++++++++++++++++++++++++",
"+++++++++++++++++++++++++++++++++++++++++++++++++++++++++++XXXXXX++++XXXX+++++++++++++++++++++++++++++++++++++++++++++++++++++++",
"+++++++++++++++++++++++++++++++++++++++++++++++++XXXX++++++++++++++++++++++XXXXXXX++++++++++++++++++++++++++++++++++++++++++++++",
"+++++++++++++++++++++++++++++++++++++++++++++++++XXXX++++++++++++++++++++++XXXXXXX++++++++++++++++++++++++++++++++++++++++++++++",
"++++++++++++++++++++++++++++++++++++++++++++++++++++++++++++++++++++++++++++++++++++++++++++++++++++++++++++++++++++++++++++++++",
"++++++++++++++++++++++++++++++++++++++++++++++++++++++++++++++++++++++++++++++++++++++++++++++++++++++++++++++++++++++++++++++++",
"++++++++++++++++++++++++++++++++++++++++++++++++++++++++++++++++++++++++++++++++++++++++oo++++++++++++++++++++++++++++++++++++++",
"++++++++++++++++++++++++++++++++++++++++++++++++++++++++++++++++++++++++++++++++++++++++oo++++++++++++++++++++++++++++++++++++++",
"++++++++++++++++++++++++++++++XX++++++++++++++++++++++++++++++++++++++++++++++++++++++++++++++++++++++++++++++++++++++++++++++++",
"++++++++++++++++++++++++++++++XX++++++++++++++++++++++++++++++++++++++++++++++++++++++++++++++++++++++++++++++++++++++++++++++++",
"++++++++++++++++++++++++++++++XX++++++++++++++++++++++++++++++++++++++++++++++++++++++++++++++++++++++++++++++++++++++++++++++++",
"++++++++++++++++++++++++++++++++++++++++++++++++++++++++++++++++++++++++++++++++++++++++++++++++++++++++++++++++++++++++++++++++",
"++++++++++++++++++++++++++++++++++++++++++++++++++++++++++++++++++++++++++++++++++++++++++++++++++++++++++++++++++++++++++++++++",
"++++++++++++++++++++++++XXXX++++++++++++++++++++++++++++++++++++++++++++++++++++++++++++++++++++++++++++++++++++++++++++++++++++",
"++++++++++++++++++++++++XXXX++++++++++++++++++++++++++++++++++++++++++++++++++++++++++++++++++++++++++++++++++++++++++++++++++++",
"++++++++++++++++++++++XX++++++++++++++++++++++++++++++++++++++++++++++++++++++++++++++++++++++++++++++++++++++++++++++++++++++++",
"++++++++++++++++++++++XX++++++++++++++++++++++++++++++++++++++++++++++++++++++++++++++++++++++++++++++++++++++++++++++++++++++++",
"++++++++++++++++++++XX++++++++++++++++++++++++++++++++++++++++++++++++++++++++++++++++++++++++++++++++++++++++++++++++++++++++++",
"++++++++++++++++++++XX++++++++++++++++++++++++++++++++++++++++++++++++++++++++++++++++++++++++++++++++++++++++++++++++++++++++++",
"++++++++++++++++++XX++++++++++++++++++++++++++++++++++++++++++++++++++++++++++++++++++++++++++++++++++++++++++++++++++++++++++++",
"++++++++++++++++++XX++++++++++++++++++++++++++++++++++++++++++++++++++++++++++++++++++++++++++++++++++++++++++++++++++++++++++++",
"++++++++++++++++++++++++++++++++++++++++++++++++++++++++++++++++++++++++++++++++++++++++++++++++++++++++++++++++++++++++++++++++",
"++++++++++++++++++++++++++++++++++++++++++++++++++++++++++++++++++++++++++++++++++++++++++++++++++++++++++++++++++++++++++++++++",
"+++++++++++++++++++++++++++++++++++++++++++++++++++++OOOOOO++++++XX+++++++++++++++++++++++++++++++++++++++++++++++++++++++++++++",
"+++++++++++++++++++++++++++++++++++++++++++++++++++++OOOOOO++++++XX+++++++++++++++++++++++++++++++++++++++++++++++++++++++++++++",
"+++++++++++++OO+++++++++++++++++++++++++++++++OOOoo++++                ++++oo+++++++++++++++++++++++++++++++++++++++++++++++++++",
"+++++++++++++OO+++++++++++++++++++++++++++++++OOOoo++++                ++++oo+++++++++++++++++++++++++++++++++++++++++++++++++++",
"++++++++++++++++++++++++++++++++++++++++++++++OOO                            ooXXXoo++++++++++++++++++++++++++++++++++++++++++++",
"++++++++++++++++++++++++++++++++++++++++++++++OOO                            ooXXXoo++++++++++++++++++++++++++++++++++++++++++++",
"++++++++++++++++++++++++++++++++++++++++++XX                                      ..oo++++++++++++++OO++++++++++++++++++++++++++",
"++++++++++++++++++++++++++++++++++++++++++XX                                      ..oo++++++++++++++OO++++++++++++++++++++++++++",
"++++++++++++++++++++++++++++++++++++++++++XX                                      ..oo++++++++++++++OO++++++++++++++++++++++++++",
"++++++++++++++++++++++++++++++++++++XX++                                              oo++++++++++++OO++++++++++++++++++++++++++",
"++++++++++++++++++++++++++++++++++++XX++                                              oo++++++++++++OO++++++++++++++++++++++++++",
"++++++++++++++++++++++++++++++++++++++                                                  oo++++++++++++++++++++++++++++++++++++++",
"++++++++++++++++++++++++++++++++++++++                                                  oo++++++++++++++++++++++++++++++++++++++",
"++++++++++++++++++++++++++++++++OO++                                                      ++++++++++++++++++++++++++++++++++++++",
"++++++++++++++++++++++++++++++++OO++                                                      ++++++++++++++++++++++++++++++++++++++",
"++++++++++++++++++++++++++++++oooo                                                          ++++++++++++XX++++++++++++++++++++++",
"++++++++++++++++++++++++++++++oooo                                                          ++++++++++++XX++++++++++++++++++++++",
"+++++oo++++oo+++++++++++++++++++                                                              OO++++++++++XX++++++++++++++++++++",
"+++++oo++++oo+++++++++++++++++++                                                              OO++++++++++XX++++++++++++++++++++",
"++++++++++++++++++++++++++++++++                                                              ++++++++++++++++++++++++++++++++++",
"++++++++++++++++++++++++++++++++                                                              ++++++++++++++++++++++++++++++++++",
"++++++++++++++++++++++++++++++                                                                  ++++++++++++++++++++++++++++++++",
"++++++++++++++++++++++++++++++                                                                  ++++++++++++++++++++++++++++++++",
"+++XX++++XX+++++++++++++++oo++                                                                  XXXX+++++++++++++++++++++XX+++++",
"+++XX++++XX+++++++++++++++oo++                                                                  XXXX+++++++++++++++++++++XX+++++",
"+++oo++++oo+++++++++++++++XX                                                                      +++++++++++++++++++++++XX+++++",
"+++oo++++oo+++++++++++++++XX                                                                      +++++++++++++++++++++++XX+++++",
"++++++++++++++++++++++++++oo                                                                      ++++++++++XX++++++++++++++++++",
"++++++++++++++++++++++++++oo                                                                      ++++++++++XX++++++++++++++++++",
"++++++++++++++++++++++++++oo                                                                      ++++++++++XX++++++++++++++++++",
"++++++++++++++++++++++++++++                                                                      oooo++++++++XXX++++++++++XX+++",
"++++++++++++++++++++++++++++                                                                      oooo++++++++XXX++++++++++XX+++",
"+XX+++++++++++++++++++++++                                                                          ++++++++++ooo++++++++++oo+++",
"+XX+++++++++++++++++++++++                                                                          ++++++++++ooo++++++++++oo+++",
"+++++++XX+++++++++++++++++                                                                          ++++++++++++++++++++++++++++",
"+++++++XX+++++++++++++++++                                                                          ++++++++++++++++++++++++++++",
"++++++++++++++++++++++++++                                                                          ++++++++++++++++++++++++++++",
"++++++++++++++++++++++++++                                                                          ++++++++++++++++++++++++++++",
"+++++++OO+++++++++++++++++                                                                          ++++++++++++++++++++++++++++",
"+++++++OO+++++++++++++++++                                                                          ++++++++++++++++++++++++++++",
"+OO+++++++++++++++++++++XX                                                                          ++++++++++++++++++++++++++++",
"+OO+++++++++++++++++++++XX                                                                          ++++++++++++++++++++++++++++",
"++++++++++++++++++++++++++                                                                          ++++++++++++++++++++++++++++",
"++++++++++++++++++++++++++                                                                          ++++++++++++++++++++++++++++",
"++++++++++++++++++++++++++                                                                          ++++++++++++++++++++++++++++",
"++++++++++++++++++++++++++                                                                          ++++++++++++++++++++++++++++",
"++++++++++++++++++++++++++                                                                          ++++++++++++++++++++++++++++",
"++++++++++++++++++++++++++                                                                          ++++++++++++++++++++++++++++",
"+XX+++++++++++++++++++++++++                                                                      ++OO++++++++++++++++++++++++++",
"+XX+++++++++++++++++++++++++                                                                      ++OO++++++++++++++++++++++++++",
"+++XX+++++++++++++++++++++++                                                                      ++++++++++++++++++++++++++++++",
"+++XX+++++++++++++++++++++++                                                                      ++++++++++++++++++++++++++++++",
"+++XX+++++++++++++++++++++++                                                                      ++++++++++++++++++++++++++++++",
"+++XX+++++++++++++++++++++++                                                                      ++++++++++++++++++++++++++++++",
"+++XX+++++++++++++++++++++++                                                                      ++++++++++++++++++++++++++++++",
"+++oo++++oo+++++++++++++++oooo                                                                  ++++++++++++OO++++++++++++++++++",
"+++oo++++oo+++++++++++++++oooo                                                                  ++++++++++++OO++++++++++++++++++",
"++++++++++++++++++++++++++++oo                                                                  XX+++++++++++++++++++++++XX+++++",
"++++++++++++++++++++++++++++oo                                                                  XX+++++++++++++++++++++++XX+++++",
"+++++++++++oo+++++++++++++++++++                                                              XXOO++++++++oo++++++++++++++++++++",
"+++++++++++oo+++++++++++++++++++                                                              XXOO++++++++oo++++++++++++++++++++",
"+++++++++++XX+++++++++++++++++++                                                              oo++++++++++OO+++++++++++oo+++++++",
"+++++++++++XX+++++++++++++++++++                                                              oo++++++++++OO+++++++++++oo+++++++",
"+++++oo+++++++++++++++++++++++XX++                                                          ++++++++++++++++++++++++++++++++++++",
"+++++oo+++++++++++++++++++++++XX++                                                          ++++++++++++++++++++++++++++++++++++",
"+++++++++++++XX+++++++++++++++++++++                                                      XXoo++++++++++++++++++++++++++++++++++",
"+++++++++++++XX+++++++++++++++++++++                                                      XXoo++++++++++++++++++++++++++++++++++",
"+++++++++++++++XXX++++++++++++++++++++                                                  ++OO++++++++++XX++++++++++++++++++++++++",
"++++++++++++++++++++++++++++++++++++++                                                  ++OO++++++++++XX++++++++++++++++++++++++",
"+++++++++XX+++++++++++++++++++++++++++++                                              ++++++++++++++++++++++++++++++++++++++++++",
"+++++++++XX+++++++++++++++++++++++++++++                                              ++++++++++++++++++++++++++++++++++++++++++",
"+++++++++XX+++++++++++++++++++++++++++++++OO                                      ++OO++++++++++++++++++++++++++++++++++++++++++",
"+++++++++XX+++++++++++++++++++++++++++++++OO                                      ++OO++++++++++++++++++++++++++++++++++++++++++",
"+++++++++XX+++++++++++++++++++++++++++++++OO                                      ++OO++++++++++++++++++++++++++++++++++++++++++",
"+++++++++++++++++++++++++++++++++++++++++++++++++                            ooooooo++++++++++++++oo+++++++++++++XX+++++++++++++",
"+++++++++++++++++++++++++++++++++++++++++++++++++                            ooooooo++++++++++++++oo+++++++++++++XX+++++++++++++",
"+++++++++++++++++++++++++++++++++++++++++++++++++OO++++                ++++++oo+++++++++++++++++++++++++++++++++++++++++++++++++",
"+++++++++++++++++++++++++++++++++++++++++++++++++OO++++                ++++++oo+++++++++++++++++++++++++++++++++++++++++++++++++",
"+++++++++++++++++++++++++++++++++++++++++++++++++++++XXXX++oo++OO++++XX+++++++++++++++++++++++++++++++++++++++ooo+++++++++++++++",
"+++++++++++++++++++++++++++++++++++++++++++++++++++++XXXX++oo++OO++++XX+++++++++++++++++++++++++++++++++++++++ooo+++++++++++++++",
"++++++++++++++++++++++++XX++++++++++++++++++++++++++++++++++++++++++++++++++++++++++++++++++oo++++++++++++++++++++++++++++++++++",
"++++++++++++++++++++++++XX++++++++++++++++++++++++++++++++++++++++++++++++++++++++++++++++++oo++++++++++++++++++++++++++++++++++",
"++++++++++++++++++++++++++++++++++++++++++++++++++++++++++++++++++++++++++++++++++++++++++++++++++++++++++++++++++++++++++++++++",
"++++++++++++++++++++++++++++++++++++++++++++++++++++++++++++++++++++++++++++++++++++++++++++++++++++++++++++++++++++++++++++++++",
"++++++++++++++++++++++++++++++OO++++++++++++++++++++++++++++++++++++++++++++++++++++++++++++++++++++++++oo++++++++++++++++++++++",
"++++++++++++++++++++++++++++++OO++++++++++++++++++++++++++++++++++++++++++++++++++++++++++++++++++++++++oo++++++++++++++++++++++",
"++++++++++++++++++++++++++++++++++++++++++++++++++++++++++++++++++++++++++++++++++++++++++++++++++++++++++++++++++++++++++++++++",
"++++++++++++++++++++++++++++++++++++++++++++++++++++++++++++++++++++++++++++++++++++++++++++++++++++++++++++++++++++++++++++++++",
"++++++++++++++++++++++++++XX+++++++++++++++++++++++++++++++++++++++++++++++++OO+++++++++++++++++++++oo++++++++++++++++++++++++++",
"++++++++++++++++++++++++++XX+++++++++++++++++++++++++++++++++++++++++++++++++OO+++++++++++++++++++++oo++++++++++++++++++++++++++",
"+++++++++++++++++++++++++++++++++++++++++++++++++++++++++++++++++++++XX+++++++++++++++++++++++++++++++++++++++++++++++++++++++++",
"+++++++++++++++++++++++++++++++++++++++++++++++++++++++++++++++++++++XX+++++++++++++++++++++++++++++++++++++++++++++++++++++++++",
"++++++++++++++++++++++++++++++++++++++++++++++++++++++++++++++++++++++++++++++++++++++++++++XX++++++++++++++++++++++++++++++++++",
"++++++++++++++++++++++++++++++++++++++++++++++++++++++++++++++++++++++++++++++++++++++++++++XX++++++++++++++++++++++++++++++++++",
"++++++++++++++++++++++++++++++++++++++++++++++++++++++++++++++++++++++++++++++++++++++++++++XX++++++++++++++++++++++++++++++++++",
"++++++++++++++++++++++++++++++++++XX+++++++++++++++++oo+++++++++++++++++++++++++++++++++++++++++++++++++++++++++++++++++++++++++",
"++++++++++++++++++++++++++++++++++XX+++++++++++++++++oo+++++++++++++++++++++++++++++++++++++++++++++++++++++++++++++++++++++++++",
"++++++++++++++++++++++++++++++++++++++oooo++++++++++++++++++++++++++++++++++++++++oo++OO++++++++++++++++++++++++++++++++++++++++",
"++++++++++++++++++++++++++++++++++++++oooo++++++++++++++++++++++++++++++++++++++++oo++OO++++++++++++++++++++++++++++++++++++++++",
"++++++++++++++++++++++++++++++++++++++++++++++ooooo+++++++++++++++++++++++++++++++++++++++++++++++++++++++++++++++++++++++++++++",
"++++++++++++++++++++++++++++++++++++++++++++++ooooo+++++++++++++++++++++++++++++++++++++++++++++++++++++++++++++++++++++++++++++",
"+++++++++++++++++++++++++++++++++++++++++++++++++++++++++++++OO++XX+++++++++++++++++++++++++++++++++++++++++++++++++++++++++++++",
"+++++++++++++++++++++++++++++++++++++++++++++++++++++++++++++OO++XX+++++++++++++++++++++++++++++++++++++++++++++++++++++++++++++",
"++++++++++++++++++++++++++++++++++++++++++++++++++++++++++++++++++++++++++++++++++++++++++++++++++++++++++++++++++++++++++++++++"
};
