/* XPM */
static char *result[] = {
/* columns rows colors chars-per-pixel */
"128 128 6 1 ",
"  c black",
". c #001540",
"X c #074890",
"o c #009CFF",
"O c white",
"+ c magenta",
/* pixels */
"++++++++++++++++++++++++++++++++++++++++++++++++++++++++++++++++++++++++++++++++++++++++++++++++++++++++++++++++++++++++++++++++",
"+++++++++++++++++++++++++++++++++++++++++++++++++++++XX++++++XXXX+++++++++++++++++++++++++++++++++++++++++++++++++++++++++++++++",
"+++++++++++++++++++++++++++++++++++++++++++++++++++++XX++++++XXXX+++++++++++++++++++++++++++++++++++++++++++++++++++++++++++++++",
"+++++++++++++++++++++++++++++++++++++++++++++++++XX++++++++++++++++++++++++++++XXX++++++++++++++++++++++++++++++++++++++++++++++",
"+++++++++++++++++++++++++++++++++++++++++++++++++XX++++++++++++++++++++++++++++XXX++++++++++++++++++++++++++++++++++++++++++++++",
"++++++++++++++++++++++++++++++++++++++++OOXX++++++++++++++++++++++++++++++++++++++++++XX++++++++++++++++++++++++++++++++++++++++",
"++++++++++++++++++++++++++++++++++++++++OOXX++++++++++++++++++++++++++++++++++++++++++XX++++++++++++++++++++++++++++++++++++++++",
"++++++++++++++++++++++++++++++++++XXoo++++++++++++++++++++++++++++++++++++++++++++++++++++XX++++++++++++++++++++++++++++++++++++",
"++++++++++++++++++++++++++++++++++XXoo++++++++++++++++++++++++++++++++++++++++++++++++++++XX++++++++++++++++++++++++++++++++++++",
"++++++++++++++++++++++++++++++++++++++++++++++++++++++++++++++++++++++++++++++++++++++++++++XX++++++++++++++++++++++++++++++++++",
"++++++++++++++++++++++++++++++++++++++++++++++++++++++++++++++++++++++++++++++++++++++++++++XX++++++++++++++++++++++++++++++++++",
"++++++++++++++++++++++++++++++++++++++++++++++++++++++++++++++++++++++++++++++++++++++++++++XX++++++++++++++++++++++++++++++++++",
"+++++++++++++++++++++++++++++++++++++++++++++++++++++++++++++++++++++oo+++++++++++++++++++++++++++++++++++++++++++++++++++++++++",
"+++++++++++++++++++++++++++++++++++++++++++++++++++++++++++++++++++++oo+++++++++++++++++++++++++++++++++++++++++++++++++++++++++",
"++++++++++++++++++++++++++++++++++++++++++++++++++++++++++++++++++++++++++++++++++++++++++++++++++XXoo++++++++++++++++++++++++++",
"++++++++++++++++++++++++++++++++++++++++++++++++++++++++++++++++++++++++++++++++++++++++++++++++++XXoo++++++++++++++++++++++++++",
"++++++++++++++++++++++XX++++++++++++++++++++++++++++++++++++++++++++++++++++++++++++++++++++++++++++++oo++++++++++++++++++++++++",
"++++++++++++++++++++++XX++++++++++++++++++++++++++++++++++++++++++++++++++++++++++++++++++++++++++++++oo++++++++++++++++++++++++",
"++++++++++++++++++++XX++++++++++++++++++++++++++++++++++++++++++++++++++++++++++++++++OO++++++++++++++++OO++++++++++++++++++++++",
"++++++++++++++++++++XX++++++++++++++++++++++++++++++++++++++++++++++++++++++++++++++++OO++++++++++++++++OO++++++++++++++++++++++",
"++++++++++++++++++++++++++++++++++++++++++++++++++++++++++++++++++++++++++++++++++++++++OO++++++++++++++++XX++++++++++++++++++++",
"++++++++++++++++++++++++++++++++++++++++++++++++++++++++++++++++++++++++++++++++++++++++OO++++++++++++++++XX++++++++++++++++++++",
"++++++++++++++++++++++++++++++++++++++++++++++++++++++++++++++++++++++++++++++++++++++++++++XX++++++++++++++++++++++++++++++++++",
"++++++++++++++++++++++++++++++++++++++++++++++++++++++++++++++++++++++++++++++++++++++++++++XX++++++++++++++++++++++++++++++++++",
"+++++++++++++++++++++++++++++++++++++++++++++++++++++++++++XXoo++++XX+++++++++++++++++++++++++XX++++++++++++++++++++++++++++++++",
"+++++++++++++++++++++++++++++++++++++++++++++++++++++++++++XXoo++++XX+++++++++++++++++++++++++XX++++++++++++++++++++++++++++++++",
"+++++++++++++++++++++++++++++++++++++++++++++++++++OO++                ++++oo+++++++++++++++++++++++++++++++++ooo+++++++++++++++",
"+++++++++++++++++++++++++++++++++++++++++++++++++++OO++                ++++oo+++++++++++++++++++++++++++++++++ooo+++++++++++++++",
"+++++++++++XX++++++++++++++++++++++++++++++++++++                            oo+++XX++++++++++++++++++++++++++++++++++++++++++++",
"+++++++++++XX++++++++++++++++++++++++++++++++++++                            oo+++XX++++++++++++++++++++++++++++++++++++++++++++",
"++++++++++++++++++++++++++++++++++++++++++++                                      ++XX++++++++++++++++++++++++++++++++++++++++++",
"++++++++++++++++++++++++++++++++++++++++++++                                      ++XX++++++++++++++++++++++++++++++++++++++++++",
"++++++++++++++++++++++++++++++++++++++++++++                                      ++XX++++++++++++++++++++++++++++++++++++++++++",
"+++++++++oo++++ooo++++++++++++++++++++++                                              ++++++++++++++++++++++++++++++++++++++++++",
"+++++++++oo++++ooo++++++++++++++++++++++                                              ++++++++++++++++++++++++++++++++++++++++++",
"++++++++++++++++++++++++++++++++++++oo                                                  ++++++++++++++XX++++++++++++++++++++++++",
"++++++++++++++++++++++++++++++++++++oo                                                  ++++++++++++++XX++++++++++++++++++++++++",
"++++++++++++++++++++++++++++++++++++                                                      ++OO+++++++++++++++++++++++XX+++++++++",
"++++++++++++++++++++++++++++++++++++                                                      ++OO+++++++++++++++++++++++XX+++++++++",
"+++++XX+++++++++++++++++++++++XXXX                                                          OO++++++++++OO+++++++++++++XX+++++++",
"+++++XX+++++++++++++++++++++++XXXX                                                          OO++++++++++OO+++++++++++++XX+++++++",
"+++++XX++++XX+++++++++++++++++oo                                                              OO++++++++++++++++++++++++++++++++",
"+++++XX++++XX+++++++++++++++++oo                                                              OO++++++++++++++++++++++++++++++++",
"+++++XX+++++++++++++++++++++++++                                                              +++++++++++++++++++++++++oo+++++++",
"+++++XX+++++++++++++++++++++++++                                                              +++++++++++++++++++++++++oo+++++++",
"++++++++++++++++++++++++++++++                                                                  +++++++++++++++++++++++++oo+++++",
"++++++++++++++++++++++++++++++                                                                  +++++++++++++++++++++++++oo+++++",
"++++++++++++++++++++++++++XXXX                                                                  ++++++++++++++++++++++++++++++++",
"++++++++++++++++++++++++++XXXX                                                                  ++++++++++++++++++++++++++++++++",
"+++++++++XX+++++++++++++++++                                                                      ++++++++++++++++++++++++++++++",
"+++++++++XX+++++++++++++++++                                                                      ++++++++++++++++++++++++++++++",
"+++XX+++++++++++++++++++++OO                                                                      oo++++++++++++++++++++++++++++",
"+++XX+++++++++++++++++++++OO                                                                      oo++++++++++++++++++++++++++++",
"+++XX+++++++++++++++++++++OO                                                                      oo++++++++++++++++++++++++++++",
"+++++++XX+++++++++++++++oooo                                                                      ..oo++++++++++++++++++++++++++",
"+++++++XX+++++++++++++++oooo                                                                      ..oo++++++++++++++++++++++++++",
"+oo+++++++++++++++++++++++                                                                          ++++++++++++++++++++++++++++",
"+oo+++++++++++++++++++++++                                                                          ++++++++++++++++++++++++++++",
"++++++++++++++++++++++++++                                                                          ++++++++++++++++++++++++++++",
"++++++++++++++++++++++++++                                                                          ++++++++++++++++++++++++++++",
"+++++++oo+++++++++++++++++                                                                          ++++++++++XXX+++++++++++++++",
"+++++++oo+++++++++++++++++                                                                          ++++++++++XXX+++++++++++++++",
"+++++++XX+++++++++++++++++                                                                          ++++++++++ooo+++++++++++++++",
"+++++++XX+++++++++++++++++                                                                          ++++++++++ooo+++++++++++++++",
"+++++++oo+++++++++++++++XX                                                                          XX+++++++++++++++++++++OO+++",
"+++++++oo+++++++++++++++XX                                                                          XX+++++++++++++++++++++OO+++",
"+++++++oo+++++++++++++++XX                                                                          XX++++++++++++++++++++++++++",
"+++++++oo+++++++++++++++XX                                                                          XX++++++++++++++++++++++++++",
"+oo++++oo+++++++++++++++++                                                                          ++++++++++++++++++++++++++++",
"+oo++++oo+++++++++++++++++                                                                          ++++++++++++++++++++++++++++",
"+oo+++++++++++++++++++++++                                                                          +++++++++++++++++++++++XX+++",
"+oo+++++++++++++++++++++++                                                                          +++++++++++++++++++++++XX+++",
"+oo+++++++++++++++++++++++++                                                                      ++++++++++++OOO++++++++++XX+++",
"+oo+++++++++++++++++++++++++                                                                      ++++++++++++OOO++++++++++XX+++",
"+++XX++++oo+++++++++++++++++                                                                      oo++++++++OO+++++++++++OO+++++",
"+++XX++++oo+++++++++++++++++                                                                      oo++++++++OO+++++++++++OO+++++",
"+++XX++++oo+++++++++++++++++                                                                      oo++++++++OO+++++++++++OO+++++",
"+++++++++oo+++++++++++++++++                                                                      XX++++++++OO+++++++++++XX+++++",
"+++++++++oo+++++++++++++++++                                                                      XX++++++++OO+++++++++++XX+++++",
"+++++++++oo+++++++++++++++++oo                                                                  ++++++++++++oo++++++++++++++++++",
"+++++++++oo+++++++++++++++++oo                                                                  ++++++++++++oo++++++++++++++++++",
"+++++++++oo+++++++++++++++++++                                                                  XX++++++++++++++++++++++++++++++",
"+++++++++oo+++++++++++++++++++                                                                  XX++++++++++++++++++++++++++++++",
"+++++++++++XX+++++++++++++++++++                                                              XX+++++++++++++++++++++++oo+++++++",
"+++++++++++XX+++++++++++++++++++                                                              XX+++++++++++++++++++++++oo+++++++",
"+++++++++++XX+++++++++++++++++XX                                                              ++++++++++++OO+++++++++++oo+++++++",
"+++++++++++XX+++++++++++++++++XX                                                              ++++++++++++OO+++++++++++oo+++++++",
"++++++++++++++++++++++++++++++++XX                                                          XX+++++++++++++++++++++++++oo+++++++",
"++++++++++++++++++++++++++++++++XX                                                          XX+++++++++++++++++++++++++oo+++++++",
"++++++++++++++++++++++++++++++++++++                                                      ++XX++++++++++++++++++++++++++++++++++",
"++++++++++++++++++++++++++++++++++++                                                      ++XX++++++++++++++++++++++++++++++++++",
"+++++++++++++++OOO++++++++++++++++++++                                                  ++++++++++++++++++++++++++++++++++++++++",
"+++++++++++++++OOO++++++++++++++++++++                                                  ++++++++++++++++++++++++++++++++++++++++",
"+++++++++XX++++XXX++++++++++++++++++++++                                              OO++++++++++++oo+++++++++++++XX+++++++++++",
"+++++++++XX++++XXX++++++++++++++++++++++                                              OO++++++++++++oo+++++++++++++XX+++++++++++",
"+++++++++XX+++++++XX++++++++++++++++++++++++                                      oo++++++++++++++++oo+++++++++++++XX+++++++++++",
"+++++++++XX+++++++XX++++++++++++++++++++++++                                      oo++++++++++++++++oo+++++++++++++XX+++++++++++",
"+++++++++XX+++++++XX++++++++++++++++++++++++                                      oo++++++++++++++++oo+++++++++++++XX+++++++++++",
"+++++++++++XX+++++++++++++++++++++++++++++++++XXX                            ++XXXoo+++++++++++++++++++++++++++++OO+++++++++++++",
"+++++++++++XX+++++++++++++++++++++++++++++++++XXX                            ++XXXoo+++++++++++++++++++++++++++++OO+++++++++++++",
"+++++++++++++++++++++++++++++++++++++++++++++++++XX++OO                OO+++++++++++++++++++++++OO++++++++++++++++++++++++++++++",
"+++++++++++++++++++++++++++++++++++++++++++++++++XX++OO                OO+++++++++++++++++++++++OO++++++++++++++++++++++++++++++",
"++++++++++++++++++++++XX+++++++++++++++++++++++++++++++++++++++XX++OO+++++++++++++++++++++++++++++++++++++++++++++++++++++++++++",
"++++++++++++++++++++++XX+++++++++++++++++++++++++++++++++++++++XX++OO+++++++++++++++++++++++++++++++++++++++++++++++++++++++++++",
"++++++++++++++++++++++++++++++++++++++++++++++++++++++++++++++++++++++++++++++++++++++++++++XX++++++++++++++++++++++++++++++++++",
"++++++++++++++++++++++++++++++++++++++++++++++++++++++++++++++++++++++++++++++++++++++++++++XX++++++++++++++++++++++++++++++++++",
"++++++++++++++++++++++++++++++++++++++++++++++++++++++++++++++++++++++++++++++++++++++++++++++++++++++++++XX++++++++++++++++++++",
"++++++++++++++++++++++++++++++++++++++++++++++++++++++++++++++++++++++++++++++++++++++++++++++++++++++++++XX++++++++++++++++++++",
"++++++++++++++++++++++++++++++++++++++++++++++++++++++++++++++++++++++++++++++++++++++++++++++++++++++++oo++++++++++++++++++++++",
"++++++++++++++++++++++++++++++++++++++++++++++++++++++++++++++++++++++++++++++++++++++++++++++++++++++++oo++++++++++++++++++++++",
"++++++++++++++++++++++XX++++++++++++++++++++++++++++++++++++++++++++++++++++++++++XX++++++++++++++++++++++++++++++++++++++++++++",
"++++++++++++++++++++++XX++++++++++++++++++++++++++++++++++++++++++++++++++++++++++XX++++++++++++++++++++++++++++++++++++++++++++",
"++++++++++++++++++++++++++++++++++++++++++++++++++++++++++++++++++++++++++++++++++++++++++++++++++++++++++++++++++++++++++++++++",
"++++++++++++++++++++++++++++++++++++++++++++++++++++++++++++++++++++++++++++++++++++++++++++++++++++++++++++++++++++++++++++++++",
"+++++++++++++++++++++++++++++++++++++++++++++++++++++++++++++++++++++oo+++++++++++++++++++++++++++++++++++++++++++++++++++++++++",
"+++++++++++++++++++++++++++++++++++++++++++++++++++++++++++++++++++++oo+++++++++++++++++++++++++++++++++++++++++++++++++++++++++",
"++++++++++++++++++++++++++++++++++++++++++++XX++++++++++++++++++++++++++++++++++++++++++++++++++++++++++++++++++++++++++++++++++",
"++++++++++++++++++++++++++++++++++++++++++++XX++++++++++++++++++++++++++++++++++++++++++++++++++++++++++++++++++++++++++++++++++",
"++++++++++++++++++++++++++++++++++++++++++++XX++++++++++++++++++++++++++++++++++++++++++++++++++++++++++++++++++++++++++++++++++",
"++++++++++++++++++++++++++++++++++++oo++++++++++++++++++++++++++++++++++++++++++++++++++XX++++++++++++++++++++++++++++++++++++++",
"++++++++++++++++++++++++++++++++++++oo++++++++++++++++++++++++++++++++++++++++++++++++++XX++++++++++++++++++++++++++++++++++++++",
"++++++++++++++++++++++++++++++++++++++++++XX++++++++++++++++++++++++++++++++++++++++XX++++++++++++++++++++++++++++++++++++++++++",
"++++++++++++++++++++++++++++++++++++++++++XX++++++++++++++++++++++++++++++++++++++++XX++++++++++++++++++++++++++++++++++++++++++",
"++++++++++++++++++++++++++++++++++++++++++++++XXX+++++++++++++++++++++++++++++++++++++++++++++++++++++++++++++++++++++++++++++++",
"++++++++++++++++++++++++++++++++++++++++++++++XXX+++++++++++++++++++++++++++++++++++++++++++++++++++++++++++++++++++++++++++++++",
"+++++++++++++++++++++++++++++++++++++++++++++++++++++XX++++oooo+++++++++++++++++++++++++++++++++++++++++++++++++++++++++++++++++",
"+++++++++++++++++++++++++++++++++++++++++++++++++++++XX++++oooo+++++++++++++++++++++++++++++++++++++++++++++++++++++++++++++++++",
"++++++++++++++++++++++++++++++++++++++++++++++++++++++++++++++++++++++++++++++++++++++++++++++++++++++++++++++++++++++++++++++++"
};
