/* XPM */
static char *result[] = {
/* columns rows colors chars-per-pixel */
"128 128 7 1 ",
"  c #181425",
". c #1A1932",
"X c #2A2F4E",
"o c #424C6E",
"O c #495377",
"+ c #92A1B9",
"@ c #C7CFDD",
/* pixels */
"                                                                        ooooooooooooooooooooooooooooooooooooooooOOOOOOOO        ",
"                                                                        ooooooooooooooooooooooooooooooooooooooooOOOOOOOO        ",
"                                                                        ooooooooooooooooooooooooooooooooooooooooOOOOOOOO        ",
"                                                                        ooooooooooooooooooooooooooooooooooooooooOOOOOOOO        ",
"                                                                        ooooooooooooooooooooooooooooooooooooooooOOOOOOOO        ",
"                                                                        ooooooooooooooooooooooooooooooooooooooooOOOOOOOO        ",
"                                                                        ooooooooooooooooooooooooooooooooooooooooOOOOOOOO        ",
"                                                                        ooooooooooooooooooooooooooooooooooooooooOOOOOOOO        ",
"                                                                        oooooooo++++++++++++++++@@@@@@@@@@@@@@@@@@@@@@@@        ",
"                                                                        oooooooo++++++++++++++++@@@@@@@@@@@@@@@@@@@@@@@@        ",
"                                                                        oooooooo++++++++++++++++@@@@@@@@@@@@@@@@@@@@@@@@        ",
"                                                                        oooooooo++++++++++++++++@@@@@@@@@@@@@@@@@@@@@@@@        ",
"                                                                        oooooooo++++++++++++++++@@@@@@@@@@@@@@@@@@@@@@@@        ",
"                                                                        oooooooo++++++++++++++++@@@@@@@@@@@@@@@@@@@@@@@@        ",
"                                                                        oooooooo++++++++++++++++@@@@@@@@@@@@@@@@@@@@@@@@        ",
"                                                                        oooooooo++++++++++++++++@@@@@@@@@@@@@@@@@@@@@@@@        ",
"                                                                        oooooooo++++++++++++++++++++++++++++++++@@@@@@@@        ",
"                                                                        oooooooo++++++++++++++++++++++++++++++++@@@@@@@@        ",
"                                                                        oooooooo++++++++++++++++++++++++++++++++@@@@@@@@        ",
"                                                                        oooooooo++++++++++++++++++++++++++++++++@@@@@@@@        ",
"                                                                        oooooooo++++++++++++++++++++++++++++++++@@@@@@@@        ",
"                                                                        oooooooo++++++++++++++++++++++++++++++++@@@@@@@@        ",
"                                                                        oooooooo++++++++++++++++++++++++++++++++@@@@@@@@        ",
"                                                                        oooooooo++++++++++++++++++++++++++++++++@@@@@@@@        ",
"                                                                        oooooooo++++++++++++++++++++++++++++++++++++++++        ",
"                                                                        oooooooo++++++++++++++++++++++++++++++++++++++++        ",
"                                                                        oooooooo++++++++++++++++++++++++++++++++++++++++        ",
"                                                                        oooooooo++++++++++++++++++++++++++++++++++++++++        ",
"                                                                        oooooooo++++++++++++++++++++++++++++++++++++++++        ",
"                                                                        oooooooo++++++++++++++++++++++++++++++++++++++++        ",
"                                                                        oooooooo++++++++++++++++++++++++++++++++++++++++        ",
"                                                                        oooooooo++++++++++++++++++++++++++++++++++++++++        ",
"                                                                        oooooooo++++++++++++++++++++++++++++++++++++++++        ",
"                                                                        oooooooo++++++++++++++++++++++++++++++++++++++++        ",
"                                                                        oooooooo++++++++++++++++++++++++++++++++++++++++        ",
"                                                                        oooooooo++++++++++++++++++++++++++++++++++++++++        ",
"                                                                        oooooooo++++++++++++++++++++++++++++++++++++++++        ",
"                                                                        oooooooo++++++++++++++++++++++++++++++++++++++++        ",
"                                                                        oooooooo++++++++++++++++++++++++++++++++++++++++        ",
"                                                                        oooooooo++++++++++++++++++++++++++++++++++++++++        ",
"                                                                        oooooooo++++++++++++++++++++++++++++++++++++++++        ",
"                                                                        oooooooo++++++++++++++++++++++++++++++++++++++++        ",
"                                                                        oooooooo++++++++++++++++++++++++++++++++++++++++        ",
"                                                                        oooooooo++++++++++++++++++++++++++++++++++++++++        ",
"                                                                        oooooooo++++++++++++++++++++++++++++++++++++++++        ",
"                                                                        oooooooo++++++++++++++++++++++++++++++++++++++++        ",
"                                                                        oooooooo++++++++++++++++++++++++++++++++++++++++        ",
"                                                                        oooooooo++++++++++++++++++++++++++++++++++++++++        ",
"                                                                                oooooooooooooooooooooooooooooooooooooooo        ",
"                                                                                oooooooooooooooooooooooooooooooooooooooo        ",
"                                                                                oooooooooooooooooooooooooooooooooooooooo        ",
"                                                                                oooooooooooooooooooooooooooooooooooooooo        ",
"                                                                                oooooooooooooooooooooooooooooooooooooooo        ",
"                                                                                oooooooooooooooooooooooooooooooooooooooo        ",
"                                                                                oooooooooooooooooooooooooooooooooooooooo        ",
"                                                                                oooooooooooooooooooooooooooooooooooooooo        ",
"                                                                                                                                ",
"                                                                                                                                ",
"                                                                                                                                ",
"                                                                                                                                ",
"                                                                                                                                ",
"                                                                                                                                ",
"                                                                                                                                ",
"                                                                                                                                ",
"                                                                        oooooooooooooooooooooooooooooooo        oooooooooooooooo",
"                                                                        oooooooooooooooooooooooooooooooo        oooooooooooooooo",
"                                                                        oooooooooooooooooooooooooooooooo        oooooooooooooooo",
"                                                                        oooooooooooooooooooooooooooooooo        oooooooooooooooo",
"                                                                        oooooooooooooooooooooooooooooooo        oooooooooooooooo",
"                                                                        oooooooooooooooooooooooooooooooo        oooooooooooooooo",
"                                                                        oooooooooooooooooooooooooooooooo        oooooooooooooooo",
"                                                                        oooooooooooooooooooooooooooooooo        oooooooooooooooo",
"                                                                                oooooooooooooooooooooooo                oooooooo",
"                                                                                oooooooooooooooooooooooo                oooooooo",
"                                                                                oooooooooooooooooooooooo                oooooooo",
"                                                                                oooooooooooooooooooooooo                oooooooo",
"                                                                                oooooooooooooooooooooooo                oooooooo",
"                                                                                oooooooooooooooooooooooo                oooooooo",
"                                                                                oooooooooooooooooooooooo                oooooooo",
"                                                                                oooooooooooooooooooooooo                oooooooo",
"                                                                                                                                ",
"                                                                                                                                ",
"                                                                                                                                ",
"                                                                                                                                ",
"                                                                                                                                ",
"                                                                                                                                ",
"                                                                                                                                ",
"                                                                                                                                ",
"                                                                                XXXXXXXX        XXXXXXXXXXXXXXXXXXXXXXXX        ",
"                                                                                XXXXXXXX        XXXXXXXXXXXXXXXXXXXXXXXX        ",
"                                                                                XXXXXXXX        XXXXXXXXXXXXXXXXXXXXXXXX        ",
"                                                                                XXXXXXXX        XXXXXXXXXXXXXXXXXXXXXXXX        ",
"                                                                                XXXXXXXX        XXXXXXXXXXXXXXXXXXXXXXXX        ",
"                                                                                XXXXXXXX        XXXXXXXXXXXXXXXXXXXXXXXX        ",
"                                                                                XXXXXXXX        XXXXXXXXXXXXXXXXXXXXXXXX        ",
"                                                                                XXXXXXXX        XXXXXXXXXXXXXXXXXXXXXXXX        ",
"                                                                                                        XXXXXXXXXXXXXXXX        ",
"                                                                                                        XXXXXXXXXXXXXXXX        ",
"                                                                                                        XXXXXXXXXXXXXXXX        ",
"                                                                                                        XXXXXXXXXXXXXXXX        ",
"                                                                                                        XXXXXXXXXXXXXXXX        ",
"                                                                                                        XXXXXXXXXXXXXXXX        ",
"                                                                                                        XXXXXXXXXXXXXXXX        ",
"                                                                                                        XXXXXXXXXXXXXXXX        ",
"                                                                                                                                ",
"                                                                                                                                ",
"                                                                                                                                ",
"                                                                                                                                ",
"                                                                                                                                ",
"                                                                                                                                ",
"                                                                                                                                ",
"                                                                                                                                ",
"                                                                                                        ................        ",
"                                                                                                        ................        ",
"                                                                                                        ................        ",
"                                                                                                        ................        ",
"                                                                                                        ................        ",
"                                                                                                        ................        ",
"                                                                                                        ................        ",
"                                                                                                        ................        ",
"                                                                                                                                ",
"                                                                                                                                ",
"                                                                                                                                ",
"                                                                                                                                ",
"                                                                                                                                ",
"                                                                                                                                ",
"                                                                                                                                ",
"                                                                                                                                "
};
