/* XPM */
static char *result[] = {
/* columns rows colors chars-per-pixel */
"128 128 7 1 ",
"  c #181425",
". c #1A1932",
"X c #2A2F4E",
"o c #424C6E",
"O c #495377",
"+ c #92A1B9",
"@ c #C7CFDD",
/* pixels */
"        OOOOOOOOoooooooooooooooooooooooooooooooooooooooo                                                                        ",
"        OOOOOOOOoooooooooooooooooooooooooooooooooooooooo                                                                        ",
"        OOOOOOOOoooooooooooooooooooooooooooooooooooooooo                                                                        ",
"        OOOOOOOOoooooooooooooooooooooooooooooooooooooooo                                                                        ",
"        OOOOOOOOoooooooooooooooooooooooooooooooooooooooo                                                                        ",
"        OOOOOOOOoooooooooooooooooooooooooooooooooooooooo                                                                        ",
"        OOOOOOOOoooooooooooooooooooooooooooooooooooooooo                                                                        ",
"        OOOOOOOOoooooooooooooooooooooooooooooooooooooooo                                                                        ",
"        @@@@@@@@@@@@@@@@@@@@@@@@++++++++++++++++oooooooo                                                                        ",
"        @@@@@@@@@@@@@@@@@@@@@@@@++++++++++++++++oooooooo                                                                        ",
"        @@@@@@@@@@@@@@@@@@@@@@@@++++++++++++++++oooooooo                                                                        ",
"        @@@@@@@@@@@@@@@@@@@@@@@@++++++++++++++++oooooooo                                                                        ",
"        @@@@@@@@@@@@@@@@@@@@@@@@++++++++++++++++oooooooo                                                                        ",
"        @@@@@@@@@@@@@@@@@@@@@@@@++++++++++++++++oooooooo                                                                        ",
"        @@@@@@@@@@@@@@@@@@@@@@@@++++++++++++++++oooooooo                                                                        ",
"        @@@@@@@@@@@@@@@@@@@@@@@@++++++++++++++++oooooooo                                                                        ",
"        @@@@@@@@++++++++++++++++++++++++++++++++oooooooo                                                                        ",
"        @@@@@@@@++++++++++++++++++++++++++++++++oooooooo                                                                        ",
"        @@@@@@@@++++++++++++++++++++++++++++++++oooooooo                                                                        ",
"        @@@@@@@@++++++++++++++++++++++++++++++++oooooooo                                                                        ",
"        @@@@@@@@++++++++++++++++++++++++++++++++oooooooo                                                                        ",
"        @@@@@@@@++++++++++++++++++++++++++++++++oooooooo                                                                        ",
"        @@@@@@@@++++++++++++++++++++++++++++++++oooooooo                                                                        ",
"        @@@@@@@@++++++++++++++++++++++++++++++++oooooooo                                                                        ",
"        ++++++++++++++++++++++++++++++++++++++++oooooooo                                                                        ",
"        ++++++++++++++++++++++++++++++++++++++++oooooooo                                                                        ",
"        ++++++++++++++++++++++++++++++++++++++++oooooooo                                                                        ",
"        ++++++++++++++++++++++++++++++++++++++++oooooooo                                                                        ",
"        ++++++++++++++++++++++++++++++++++++++++oooooooo                                                                        ",
"        ++++++++++++++++++++++++++++++++++++++++oooooooo                                                                        ",
"        ++++++++++++++++++++++++++++++++++++++++oooooooo                                                                        ",
"        ++++++++++++++++++++++++++++++++++++++++oooooooo                                                                        ",
"        ++++++++++++++++++++++++++++++++++++++++oooooooo                                                                        ",
"        ++++++++++++++++++++++++++++++++++++++++oooooooo                                                                        ",
"        ++++++++++++++++++++++++++++++++++++++++oooooooo                                                                        ",
"        ++++++++++++++++++++++++++++++++++++++++oooooooo                                                                        ",
"        ++++++++++++++++++++++++++++++++++++++++oooooooo                                                                        ",
"        ++++++++++++++++++++++++++++++++++++++++oooooooo                                                                        ",
"        ++++++++++++++++++++++++++++++++++++++++oooooooo                                                                        ",
"        ++++++++++++++++++++++++++++++++++++++++oooooooo                                                                        ",
"        ++++++++++++++++++++++++++++++++++++++++oooooooo                                                                        ",
"        ++++++++++++++++++++++++++++++++++++++++oooooooo                                                                        ",
"        ++++++++++++++++++++++++++++++++++++++++oooooooo                                                                        ",
"        ++++++++++++++++++++++++++++++++++++++++oooooooo                                                                        ",
"        ++++++++++++++++++++++++++++++++++++++++oooooooo                                                                        ",
"        ++++++++++++++++++++++++++++++++++++++++oooooooo                                                                        ",
"        ++++++++++++++++++++++++++++++++++++++++oooooooo                                                                        ",
"        ++++++++++++++++++++++++++++++++++++++++oooooooo                                                                        ",
"        oooooooooooooooooooooooooooooooooooooooo                                                                                ",
"        oooooooooooooooooooooooooooooooooooooooo                                                                                ",
"        oooooooooooooooooooooooooooooooooooooooo                                                                                ",
"        oooooooooooooooooooooooooooooooooooooooo                                                                                ",
"        oooooooooooooooooooooooooooooooooooooooo                                                                                ",
"        oooooooooooooooooooooooooooooooooooooooo                                                                                ",
"        oooooooooooooooooooooooooooooooooooooooo                                                                                ",
"        oooooooooooooooooooooooooooooooooooooooo                                                                                ",
"                                                                                                                                ",
"                                                                                                                                ",
"                                                                                                                                ",
"                                                                                                                                ",
"                                                                                                                                ",
"                                                                                                                                ",
"                                                                                                                                ",
"                                                                                                                                ",
"oooooooooooooooo        oooooooooooooooooooooooooooooooo                                                                        ",
"oooooooooooooooo        oooooooooooooooooooooooooooooooo                                                                        ",
"oooooooooooooooo        oooooooooooooooooooooooooooooooo                                                                        ",
"oooooooooooooooo        oooooooooooooooooooooooooooooooo                                                                        ",
"oooooooooooooooo        oooooooooooooooooooooooooooooooo                                                                        ",
"oooooooooooooooo        oooooooooooooooooooooooooooooooo                                                                        ",
"oooooooooooooooo        oooooooooooooooooooooooooooooooo                                                                        ",
"oooooooooooooooo        oooooooooooooooooooooooooooooooo                                                                        ",
"oooooooo                oooooooooooooooooooooooo                                                                                ",
"oooooooo                oooooooooooooooooooooooo                                                                                ",
"oooooooo                oooooooooooooooooooooooo                                                                                ",
"oooooooo                oooooooooooooooooooooooo                                                                                ",
"oooooooo                oooooooooooooooooooooooo                                                                                ",
"oooooooo                oooooooooooooooooooooooo                                                                                ",
"oooooooo                oooooooooooooooooooooooo                                                                                ",
"oooooooo                oooooooooooooooooooooooo                                                                                ",
"                                                                                                                                ",
"                                                                                                                                ",
"                                                                                                                                ",
"                                                                                                                                ",
"                                                                                                                                ",
"                                                                                                                                ",
"                                                                                                                                ",
"                                                                                                                                ",
"XXXXXXXXXXXXXXXXXXXXXXXX        XXXXXXXX                                                                                        ",
"XXXXXXXXXXXXXXXXXXXXXXXX        XXXXXXXX                                                                                        ",
"XXXXXXXXXXXXXXXXXXXXXXXX        XXXXXXXX                                                                                        ",
"XXXXXXXXXXXXXXXXXXXXXXXX        XXXXXXXX                                                                                        ",
"XXXXXXXXXXXXXXXXXXXXXXXX        XXXXXXXX                                                                                        ",
"XXXXXXXXXXXXXXXXXXXXXXXX        XXXXXXXX                                                                                        ",
"XXXXXXXXXXXXXXXXXXXXXXXX        XXXXXXXX                                                                                        ",
"XXXXXXXXXXXXXXXXXXXXXXXX        XXXXXXXX                                                                                        ",
"XXXXXXXXXXXXXXXX                                                                                                                ",
"XXXXXXXXXXXXXXXX                                                                                                                ",
"XXXXXXXXXXXXXXXX                                                                                                                ",
"XXXXXXXXXXXXXXXX                                                                                                                ",
"XXXXXXXXXXXXXXXX                                                                                                                ",
"XXXXXXXXXXXXXXXX                                                                                                                ",
"XXXXXXXXXXXXXXXX                                                                                                                ",
"XXXXXXXXXXXXXXXX                                                                                                                ",
"                                                                                                                                ",
"                                                                                                                                ",
"                                                                                                                                ",
"                                                                                                                                ",
"                                                                                                                                ",
"                                                                                                                                ",
"                                                                                                                                ",
"                                                                                                                                ",
"        ................                                                                                                        ",
"        ................                                                                                                        ",
"        ................                                                                                                        ",
"        ................                                                                                                        ",
"        ................                                                                                                        ",
"        ................                                                                                                        ",
"        ................                                                                                                        ",
"        ................                                                                                                        ",
"                                                                                                                                ",
"                                                                                                                                ",
"                                                                                                                                ",
"                                                                                                                                ",
"                                                                                                                                ",
"                                                                                                                                ",
"                                                                                                                                ",
"                                                                                                                                "
};
