/* XPM */
static char *result[] = {
/* columns rows colors chars-per-pixel */
"128 128 5 1 ",
"  c #181425",
". c #424C6E",
"X c #657392",
"o c #92A1B9",
"O c #C7CFDD",
/* pixels */
"                                                                        ................................................        ",
"                                                                        ................................................        ",
"                                                                        ................................................        ",
"                                                                        ................................................        ",
"                                                                        ................................................        ",
"                                                                        ................................................        ",
"                                                                        ................................................        ",
"                                                                        ................................................        ",
"                                                                        ........oooooooooooooooooooooooooooooooooooooooo        ",
"                                                                        ........oooooooooooooooooooooooooooooooooooooooo        ",
"                                                                        ........oooooooooooooooooooooooooooooooooooooooo        ",
"                                                                        ........oooooooooooooooooooooooooooooooooooooooo        ",
"                                                                        ........oooooooooooooooooooooooooooooooooooooooo        ",
"                                                                        ........oooooooooooooooooooooooooooooooooooooooo        ",
"                                                                        ........oooooooooooooooooooooooooooooooooooooooo        ",
"                                                                        ........oooooooooooooooooooooooooooooooooooooooo        ",
"                                                                        ........ooooooooooooooooooooooooooooooooOOOOOOOO        ",
"                                                                        ........ooooooooooooooooooooooooooooooooOOOOOOOO        ",
"                                                                        ........ooooooooooooooooooooooooooooooooOOOOOOOO        ",
"                                                                        ........ooooooooooooooooooooooooooooooooOOOOOOOO        ",
"                                                                        ........ooooooooooooooooooooooooooooooooOOOOOOOO        ",
"                                                                        ........ooooooooooooooooooooooooooooooooOOOOOOOO        ",
"                                                                        ........ooooooooooooooooooooooooooooooooOOOOOOOO        ",
"                                                                        ........ooooooooooooooooooooooooooooooooOOOOOOOO        ",
"                                                                        ........ooooooooooooooooooooooooooooooooOOOOOOOO        ",
"                                                                        ........ooooooooooooooooooooooooooooooooOOOOOOOO        ",
"                                                                        ........ooooooooooooooooooooooooooooooooOOOOOOOO        ",
"                                                                        ........ooooooooooooooooooooooooooooooooOOOOOOOO        ",
"                                                                        ........ooooooooooooooooooooooooooooooooOOOOOOOO        ",
"                                                                        ........ooooooooooooooooooooooooooooooooOOOOOOOO        ",
"                                                                        ........ooooooooooooooooooooooooooooooooOOOOOOOO        ",
"                                                                        ........ooooooooooooooooooooooooooooooooOOOOOOOO        ",
"                                                                        ........ooooooooooooooooooooooooooooooooOOOOOOOO        ",
"                                                                        ........ooooooooooooooooooooooooooooooooOOOOOOOO        ",
"                                                                        ........ooooooooooooooooooooooooooooooooOOOOOOOO        ",
"                                                                        ........ooooooooooooooooooooooooooooooooOOOOOOOO        ",
"                                                                        ........ooooooooooooooooooooooooooooooooOOOOOOOO        ",
"                                                                        ........ooooooooooooooooooooooooooooooooOOOOOOOO        ",
"                                                                        ........ooooooooooooooooooooooooooooooooOOOOOOOO        ",
"                                                                        ........ooooooooooooooooooooooooooooooooOOOOOOOO        ",
"                                                                        ........ooooooooooooooooooooooooooooooooOOOOOOOO        ",
"                                                                        ........ooooooooooooooooooooooooooooooooOOOOOOOO        ",
"                                                                        ........ooooooooooooooooooooooooooooooooOOOOOOOO        ",
"                                                                        ........ooooooooooooooooooooooooooooooooOOOOOOOO        ",
"                                                                        ........ooooooooooooooooooooooooooooooooOOOOOOOO        ",
"                                                                        ........ooooooooooooooooooooooooooooooooOOOOOOOO        ",
"                                                                        ........ooooooooooooooooooooooooooooooooOOOOOOOO        ",
"                                                                        ........ooooooooooooooooooooooooooooooooOOOOOOOO        ",
"                                                                        ........ooooooooooooooooooooooooooooooooOOOOOOOO        ",
"                                                                        ........ooooooooooooooooooooooooooooooooOOOOOOOO        ",
"                                                                        ........ooooooooooooooooooooooooooooooooOOOOOOOO        ",
"                                                                        ........ooooooooooooooooooooooooooooooooOOOOOOOO        ",
"                                                                        ........ooooooooooooooooooooooooooooooooOOOOOOOO        ",
"                                                                        ........ooooooooooooooooooooooooooooooooOOOOOOOO        ",
"                                                                        ........ooooooooooooooooooooooooooooooooOOOOOOOO        ",
"                                                                        ........ooooooooooooooooooooooooooooooooOOOOOOOO        ",
"                                                                        ........ooooooooooooooooooooooooooooooooOOOOOOOO        ",
"                                                                        ........ooooooooooooooooooooooooooooooooOOOOOOOO        ",
"                                                                        ........ooooooooooooooooooooooooooooooooOOOOOOOO        ",
"                                                                        ........ooooooooooooooooooooooooooooooooOOOOOOOO        ",
"                                                                        ........ooooooooooooooooooooooooooooooooOOOOOOOO        ",
"                                                                        ........ooooooooooooooooooooooooooooooooOOOOOOOO        ",
"                                                                        ........ooooooooooooooooooooooooooooooooOOOOOOOO        ",
"                                                                        ........ooooooooooooooooooooooooooooooooOOOOOOOO        ",
"                                                                        ........ooooooooooooooooooooooooooooooooOOOOOOOO        ",
"                                                                        ........ooooooooooooooooooooooooooooooooOOOOOOOO        ",
"                                                                        ........ooooooooooooooooooooooooooooooooOOOOOOOO        ",
"                                                                        ........ooooooooooooooooooooooooooooooooOOOOOOOO        ",
"                                                                        ........ooooooooooooooooooooooooooooooooOOOOOOOO        ",
"                                                                        ........ooooooooooooooooooooooooooooooooOOOOOOOO        ",
"                                                                        ........ooooooooooooooooooooooooooooooooOOOOOOOO        ",
"                                                                        ........ooooooooooooooooooooooooooooooooOOOOOOOO        ",
"                                                                        ........ooooooooooooooooooooooooooooooooOOOOOOOO        ",
"                                                                        ........ooooooooooooooooooooooooooooooooOOOOOOOO        ",
"                                                                        ........ooooooooooooooooooooooooooooooooOOOOOOOO        ",
"                                                                        ........ooooooooooooooooooooooooooooooooOOOOOOOO        ",
"                                                                        ........ooooooooooooooooooooooooooooooooOOOOOOOO        ",
"                                                                        ........ooooooooooooooooooooooooooooooooOOOOOOOO        ",
"                                                                        ........ooooooooooooooooooooooooooooooooOOOOOOOO        ",
"                                                                        ........ooooooooooooooooooooooooooooooooOOOOOOOO        ",
"                                                                        ........ooooooooooooooooooooooooooooooooOOOOOOOO        ",
"                                                                        ........ooooooooooooooooooooooooooooooooOOOOOOOO        ",
"                                                                        ........ooooooooooooooooooooooooooooooooOOOOOOOO        ",
"                                                                        ........ooooooooooooooooooooooooooooooooOOOOOOOO        ",
"                                                                        ........ooooooooooooooooooooooooooooooooOOOOOOOO        ",
"                                                                        ........ooooooooooooooooooooooooooooooooOOOOOOOO        ",
"                                                                        ........ooooooooooooooooooooooooooooooooOOOOOOOO        ",
"                                                                        ........ooooooooooooooooooooooooooooooooOOOOOOOO        ",
"                                                                        ........ooooooooooooooooooooooooooooooooOOOOOOOO        ",
"                                                                        ........ooooooooooooooooooooooooooooooooOOOOOOOO        ",
"                                                                        ........ooooooooooooooooooooooooooooooooOOOOOOOO        ",
"                                                                        ........ooooooooooooooooooooooooooooooooOOOOOOOO        ",
"                                                                        ........ooooooooooooooooooooooooooooooooOOOOOOOO        ",
"                                                                        ........ooooooooooooooooooooooooooooooooOOOOOOOO        ",
"                                                                        ........ooooooooooooooooooooooooooooooooOOOOOOOO        ",
"                                                                        ........ooooooooooooooooooooooooooooooooOOOOOOOO        ",
"                                                                        ........ooooooooooooooooooooooooooooooooOOOOOOOO        ",
"                                                                        ........ooooooooooooooooooooooooooooooooOOOOOOOO        ",
"                                                                        ........ooooooooooooooooooooooooooooooooOOOOOOOO        ",
"                                                                        ........ooooooooooooooooooooooooooooooooOOOOOOOO        ",
"                                                                        ........ooooooooooooooooooooooooooooooooOOOOOOOO        ",
"                                                                        ........ooooooooooooooooooooooooooooooooOOOOOOOO        ",
"                                                                        ........ooooooooooooooooooooooooooooooooOOOOOOOO        ",
"                                                                        ........ooooooooooooooooooooooooooooooooOOOOOOOO        ",
"                                                                        ........ooooooooooooooooooooooooooooooooOOOOOOOO        ",
"                                                                        ........ooooooooooooooooooooooooooooooooOOOOOOOO        ",
"                                                                        ........ooooooooooooooooooooooooooooooooOOOOOOOO        ",
"                                                                        ........ooooooooooooooooooooooooooooooooOOOOOOOO        ",
"                                                                        ........ooooooooooooooooooooooooooooooooOOOOOOOO        ",
"                                                                        ........ooooooooooooooooooooooooooooooooOOOOOOOO        ",
"                                                                        ........ooooooooooooooooooooooooooooooooOOOOOOOO        ",
"                                                                        ........ooooooooooooooooooooooooooooooooOOOOOOOO        ",
"                                                                        ........ooooooooooooooooooooooooooooooooOOOOOOOO        ",
"                                                                        ........ooooooooooooooooooooooooooooooooOOOOOOOO        ",
"                                                                        ........ooooooooooooooooooooooooooooooooOOOOOOOO        ",
"                                                                        ........ooooooooooooooooooooooooooooooooOOOOOOOO        ",
"                                                                        ........ooooooooooooooooooooooooooooooooOOOOOOOO        ",
"                                                                        ........ooooooooooooooooooooooooooooooooOOOOOOOO        ",
"                                                                        ........ooooooooooooooooooooooooooooooooOOOOOOOO        ",
"                                                                        ........ooooooooooooooooooooooooooooooooOOOOOOOO        ",
"                                                                        ........XXXXXXXXXXXXXXXXXXXXXXXXXXXXXXXXoooooooo        ",
"                                                                        ........XXXXXXXXXXXXXXXXXXXXXXXXXXXXXXXXoooooooo        ",
"                                                                        ........XXXXXXXXXXXXXXXXXXXXXXXXXXXXXXXXoooooooo        ",
"                                                                        ........XXXXXXXXXXXXXXXXXXXXXXXXXXXXXXXXoooooooo        ",
"                                                                        ........XXXXXXXXXXXXXXXXXXXXXXXXXXXXXXXXoooooooo        ",
"                                                                        ........XXXXXXXXXXXXXXXXXXXXXXXXXXXXXXXXoooooooo        ",
"                                                                        ........XXXXXXXXXXXXXXXXXXXXXXXXXXXXXXXXoooooooo        ",
"                                                                        ........XXXXXXXXXXXXXXXXXXXXXXXXXXXXXXXXoooooooo        "
};
