/* XPM */
static char *result[] = {
/* columns rows colors chars-per-pixel */
"128 128 5 1 ",
"  c #181425",
". c #2A2F4E",
"X c #424C6E",
"o c #657392",
"O c #92A1B9",
/* pixels */
"                                                                                                                                ",
"                                                                                                                                ",
"                                                                                                                                ",
"                                                                                                                                ",
"                                                                                                                                ",
"                                                                                                                                ",
"                                                                                                                                ",
"                                                                                                                                ",
"                                                                                                                                ",
"                                                                                                                                ",
"                                                                                                                                ",
"                                                                                                                                ",
"                                                                                                                                ",
"                                                                                                                                ",
"                                                                                                                                ",
"                                                                                                                                ",
"                                                                                                OOOOOOOOOOOOOOOOoooooooo        ",
"                                                                                                OOOOOOOOOOOOOOOOoooooooo        ",
"                                                                                                OOOOOOOOOOOOOOOOoooooooo        ",
"                                                                                                OOOOOOOOOOOOOOOOoooooooo        ",
"                                                                                                OOOOOOOOOOOOOOOOoooooooo        ",
"                                                                                                OOOOOOOOOOOOOOOOoooooooo        ",
"                                                                                                OOOOOOOOOOOOOOOOoooooooo        ",
"                                                                                                OOOOOOOOOOOOOOOOoooooooo        ",
"                                                                                                OOOOOOOOooooooooXXXXXXXX        ",
"                                                                                                OOOOOOOOooooooooXXXXXXXX        ",
"                                                                                                OOOOOOOOooooooooXXXXXXXX        ",
"                                                                                                OOOOOOOOooooooooXXXXXXXX        ",
"                                                                                                OOOOOOOOooooooooXXXXXXXX        ",
"                                                                                                OOOOOOOOooooooooXXXXXXXX        ",
"                                                                                                OOOOOOOOooooooooXXXXXXXX        ",
"                                                                                                OOOOOOOOooooooooXXXXXXXX        ",
"                                                                                                ooooooooooooooooXXXXXXXX        ",
"                                                                                                ooooooooooooooooXXXXXXXX        ",
"                                                                                                ooooooooooooooooXXXXXXXX        ",
"                                                                                                ooooooooooooooooXXXXXXXX        ",
"                                                                                                ooooooooooooooooXXXXXXXX        ",
"                                                                                                ooooooooooooooooXXXXXXXX        ",
"                                                                                                ooooooooooooooooXXXXXXXX        ",
"                                                                                                ooooooooooooooooXXXXXXXX        ",
"                                                                ooooooooooooooooXXXXXXXX........ooooooooooooooooXXXXXXXX        ",
"                                                                ooooooooooooooooXXXXXXXX........ooooooooooooooooXXXXXXXX        ",
"                                                                ooooooooooooooooXXXXXXXX........ooooooooooooooooXXXXXXXX        ",
"                                                                ooooooooooooooooXXXXXXXX........ooooooooooooooooXXXXXXXX        ",
"                                                                ooooooooooooooooXXXXXXXX........ooooooooooooooooXXXXXXXX        ",
"                                                                ooooooooooooooooXXXXXXXX........ooooooooooooooooXXXXXXXX        ",
"                                                                ooooooooooooooooXXXXXXXX........ooooooooooooooooXXXXXXXX        ",
"                                                                ooooooooooooooooXXXXXXXX........ooooooooooooooooXXXXXXXX        ",
"                                                                ooooooooXXXXXXXX................ooooooooooooooooXXXXXXXX        ",
"                                                                ooooooooXXXXXXXX................ooooooooooooooooXXXXXXXX        ",
"                                                                ooooooooXXXXXXXX................ooooooooooooooooXXXXXXXX        ",
"                                                                ooooooooXXXXXXXX................ooooooooooooooooXXXXXXXX        ",
"                                                                ooooooooXXXXXXXX................ooooooooooooooooXXXXXXXX        ",
"                                                                ooooooooXXXXXXXX................ooooooooooooooooXXXXXXXX        ",
"                                                                ooooooooXXXXXXXX................ooooooooooooooooXXXXXXXX        ",
"                                                                ooooooooXXXXXXXX................ooooooooooooooooXXXXXXXX        ",
"                                ooooooooooooooooXXXXXXXX........XXXXXXXXXXXXXXXX................ooooooooooooooooXXXXXXXX        ",
"                                ooooooooooooooooXXXXXXXX........XXXXXXXXXXXXXXXX................ooooooooooooooooXXXXXXXX        ",
"                                ooooooooooooooooXXXXXXXX........XXXXXXXXXXXXXXXX................ooooooooooooooooXXXXXXXX        ",
"                                ooooooooooooooooXXXXXXXX........XXXXXXXXXXXXXXXX................ooooooooooooooooXXXXXXXX        ",
"                                ooooooooooooooooXXXXXXXX........XXXXXXXXXXXXXXXX................ooooooooooooooooXXXXXXXX        ",
"                                ooooooooooooooooXXXXXXXX........XXXXXXXXXXXXXXXX................ooooooooooooooooXXXXXXXX        ",
"                                ooooooooooooooooXXXXXXXX........XXXXXXXXXXXXXXXX................ooooooooooooooooXXXXXXXX        ",
"                                ooooooooooooooooXXXXXXXX........XXXXXXXXXXXXXXXX................ooooooooooooooooXXXXXXXX        ",
"                                ooooooooXXXXXXXX................XXXXXXXXXXXXXXXX................ooooooooooooooooXXXXXXXX        ",
"                                ooooooooXXXXXXXX................XXXXXXXXXXXXXXXX................ooooooooooooooooXXXXXXXX        ",
"                                ooooooooXXXXXXXX................XXXXXXXXXXXXXXXX................ooooooooooooooooXXXXXXXX        ",
"                                ooooooooXXXXXXXX................XXXXXXXXXXXXXXXX................ooooooooooooooooXXXXXXXX        ",
"                                ooooooooXXXXXXXX................XXXXXXXXXXXXXXXX................ooooooooooooooooXXXXXXXX        ",
"                                ooooooooXXXXXXXX................XXXXXXXXXXXXXXXX................ooooooooooooooooXXXXXXXX        ",
"                                ooooooooXXXXXXXX................XXXXXXXXXXXXXXXX................ooooooooooooooooXXXXXXXX        ",
"                                ooooooooXXXXXXXX................XXXXXXXXXXXXXXXX................ooooooooooooooooXXXXXXXX        ",
"        XXXXXXXX........        XXXXXXXXXXXXXXXX................XXXXXXXXXXXXXXXX................ooooooooooooooooXXXXXXXX        ",
"        XXXXXXXX........        XXXXXXXXXXXXXXXX................XXXXXXXXXXXXXXXX................ooooooooooooooooXXXXXXXX        ",
"        XXXXXXXX........        XXXXXXXXXXXXXXXX................XXXXXXXXXXXXXXXX................ooooooooooooooooXXXXXXXX        ",
"        XXXXXXXX........        XXXXXXXXXXXXXXXX................XXXXXXXXXXXXXXXX................ooooooooooooooooXXXXXXXX        ",
"        XXXXXXXX........        XXXXXXXXXXXXXXXX................XXXXXXXXXXXXXXXX................ooooooooooooooooXXXXXXXX        ",
"        XXXXXXXX........        XXXXXXXXXXXXXXXX................XXXXXXXXXXXXXXXX................ooooooooooooooooXXXXXXXX        ",
"        XXXXXXXX........        XXXXXXXXXXXXXXXX................XXXXXXXXXXXXXXXX................ooooooooooooooooXXXXXXXX        ",
"        XXXXXXXX........        XXXXXXXXXXXXXXXX................XXXXXXXXXXXXXXXX................ooooooooooooooooXXXXXXXX        ",
"        XXXXXXXX                XXXXXXXXXXXXXXXX................XXXXXXXXXXXXXXXX................ooooooooooooooooXXXXXXXX        ",
"        XXXXXXXX                XXXXXXXXXXXXXXXX................XXXXXXXXXXXXXXXX................ooooooooooooooooXXXXXXXX        ",
"        XXXXXXXX                XXXXXXXXXXXXXXXX................XXXXXXXXXXXXXXXX................ooooooooooooooooXXXXXXXX        ",
"        XXXXXXXX                XXXXXXXXXXXXXXXX................XXXXXXXXXXXXXXXX................ooooooooooooooooXXXXXXXX        ",
"        XXXXXXXX                XXXXXXXXXXXXXXXX................XXXXXXXXXXXXXXXX................ooooooooooooooooXXXXXXXX        ",
"        XXXXXXXX                XXXXXXXXXXXXXXXX................XXXXXXXXXXXXXXXX................ooooooooooooooooXXXXXXXX        ",
"        XXXXXXXX                XXXXXXXXXXXXXXXX................XXXXXXXXXXXXXXXX................ooooooooooooooooXXXXXXXX        ",
"        XXXXXXXX                XXXXXXXXXXXXXXXX................XXXXXXXXXXXXXXXX................ooooooooooooooooXXXXXXXX        ",
"        ........                XXXXXXXXXXXXXXXX................XXXXXXXXXXXXXXXX................ooooooooooooooooXXXXXXXX        ",
"        ........                XXXXXXXXXXXXXXXX................XXXXXXXXXXXXXXXX................ooooooooooooooooXXXXXXXX        ",
"        ........                XXXXXXXXXXXXXXXX................XXXXXXXXXXXXXXXX................ooooooooooooooooXXXXXXXX        ",
"        ........                XXXXXXXXXXXXXXXX................XXXXXXXXXXXXXXXX................ooooooooooooooooXXXXXXXX        ",
"        ........                XXXXXXXXXXXXXXXX................XXXXXXXXXXXXXXXX................ooooooooooooooooXXXXXXXX        ",
"        ........                XXXXXXXXXXXXXXXX................XXXXXXXXXXXXXXXX................ooooooooooooooooXXXXXXXX        ",
"        ........                XXXXXXXXXXXXXXXX................XXXXXXXXXXXXXXXX................ooooooooooooooooXXXXXXXX        ",
"        ........                XXXXXXXXXXXXXXXX................XXXXXXXXXXXXXXXX................ooooooooooooooooXXXXXXXX        ",
"        ........                XXXXXXXXXXXXXXXX................XXXXXXXXXXXXXXXX................ooooooooooooooooXXXXXXXX        ",
"        ........                XXXXXXXXXXXXXXXX................XXXXXXXXXXXXXXXX................ooooooooooooooooXXXXXXXX        ",
"        ........                XXXXXXXXXXXXXXXX................XXXXXXXXXXXXXXXX................ooooooooooooooooXXXXXXXX        ",
"        ........                XXXXXXXXXXXXXXXX................XXXXXXXXXXXXXXXX................ooooooooooooooooXXXXXXXX        ",
"        ........                XXXXXXXXXXXXXXXX................XXXXXXXXXXXXXXXX................ooooooooooooooooXXXXXXXX        ",
"        ........                XXXXXXXXXXXXXXXX................XXXXXXXXXXXXXXXX................ooooooooooooooooXXXXXXXX        ",
"        ........                XXXXXXXXXXXXXXXX................XXXXXXXXXXXXXXXX................ooooooooooooooooXXXXXXXX        ",
"        ........                XXXXXXXXXXXXXXXX................XXXXXXXXXXXXXXXX................ooooooooooooooooXXXXXXXX        ",
"        ........                XXXXXXXXXXXXXXXX................XXXXXXXXXXXXXXXX................OOOOOOOOooooooooXXXXXXXX        ",
"        ........                XXXXXXXXXXXXXXXX................XXXXXXXXXXXXXXXX................OOOOOOOOooooooooXXXXXXXX        ",
"        ........                XXXXXXXXXXXXXXXX................XXXXXXXXXXXXXXXX................OOOOOOOOooooooooXXXXXXXX        ",
"        ........                XXXXXXXXXXXXXXXX................XXXXXXXXXXXXXXXX................OOOOOOOOooooooooXXXXXXXX        ",
"        ........                XXXXXXXXXXXXXXXX................XXXXXXXXXXXXXXXX................OOOOOOOOooooooooXXXXXXXX        ",
"        ........                XXXXXXXXXXXXXXXX................XXXXXXXXXXXXXXXX................OOOOOOOOooooooooXXXXXXXX        ",
"        ........                XXXXXXXXXXXXXXXX................XXXXXXXXXXXXXXXX................OOOOOOOOooooooooXXXXXXXX        ",
"        ........                XXXXXXXXXXXXXXXX................XXXXXXXXXXXXXXXX................OOOOOOOOooooooooXXXXXXXX        ",
"        ........                XXXXXXXXXXXXXXXX................ooooooooXXXXXXXX................OOOOOOOOOOOOOOOOoooooooo        ",
"        ........                XXXXXXXXXXXXXXXX................ooooooooXXXXXXXX................OOOOOOOOOOOOOOOOoooooooo        ",
"        ........                XXXXXXXXXXXXXXXX................ooooooooXXXXXXXX................OOOOOOOOOOOOOOOOoooooooo        ",
"        ........                XXXXXXXXXXXXXXXX................ooooooooXXXXXXXX................OOOOOOOOOOOOOOOOoooooooo        ",
"        ........                XXXXXXXXXXXXXXXX................ooooooooXXXXXXXX................OOOOOOOOOOOOOOOOoooooooo        ",
"        ........                XXXXXXXXXXXXXXXX................ooooooooXXXXXXXX................OOOOOOOOOOOOOOOOoooooooo        ",
"        ........                XXXXXXXXXXXXXXXX................ooooooooXXXXXXXX................OOOOOOOOOOOOOOOOoooooooo        ",
"        ........                XXXXXXXXXXXXXXXX................ooooooooXXXXXXXX................OOOOOOOOOOOOOOOOoooooooo        ",
"                                                                                                                                ",
"                                                                                                                                ",
"                                                                                                                                ",
"                                                                                                                                ",
"                                                                                                                                ",
"                                                                                                                                ",
"                                                                                                                                ",
"                                                                                                                                "
};
