/* XPM */
static char *result[] = {
/* columns rows colors chars-per-pixel */
"128 128 5 1 ",
"  c #181425",
". c #424C6E",
"X c #495377",
"o c #92A1B9",
"O c #C7CFDD",
/* pixels */
"................................................                                                                                ",
"................................................                                                                                ",
"................................................                                                                                ",
"................................................                                                                                ",
"................................................                                                                                ",
"................................................                                                                                ",
"................................................                                                                                ",
"................................................                                                                                ",
"oooooooooooooooooooooooooooooooooooooooooooooooo........                                                                        ",
"oooooooooooooooooooooooooooooooooooooooooooooooo........                                                                        ",
"oooooooooooooooooooooooooooooooooooooooooooooooo........                                                                        ",
"oooooooooooooooooooooooooooooooooooooooooooooooo........                                                                        ",
"oooooooooooooooooooooooooooooooooooooooooooooooo........                                                                        ",
"oooooooooooooooooooooooooooooooooooooooooooooooo........                                                                        ",
"oooooooooooooooooooooooooooooooooooooooooooooooo........                                                                        ",
"oooooooooooooooooooooooooooooooooooooooooooooooo........                                                                        ",
"oooooooooooooooooooooooooooooooooooooooooooooooo........                                                                        ",
"oooooooooooooooooooooooooooooooooooooooooooooooo........                                                                        ",
"oooooooooooooooooooooooooooooooooooooooooooooooo........                                                                        ",
"oooooooooooooooooooooooooooooooooooooooooooooooo........                                                                        ",
"oooooooooooooooooooooooooooooooooooooooooooooooo........                                                                        ",
"oooooooooooooooooooooooooooooooooooooooooooooooo........                                                                        ",
"oooooooooooooooooooooooooooooooooooooooooooooooo........                                                                        ",
"oooooooooooooooooooooooooooooooooooooooooooooooo........                                                                        ",
"oooooooooooooooooooooooooooooooooooooooooooooooo........                                                                        ",
"oooooooooooooooooooooooooooooooooooooooooooooooo........                                                                        ",
"oooooooooooooooooooooooooooooooooooooooooooooooo........                                                                        ",
"oooooooooooooooooooooooooooooooooooooooooooooooo........                                                                        ",
"oooooooooooooooooooooooooooooooooooooooooooooooo........                                                                        ",
"oooooooooooooooooooooooooooooooooooooooooooooooo........                                                                        ",
"oooooooooooooooooooooooooooooooooooooooooooooooo........                                                                        ",
"oooooooooooooooooooooooooooooooooooooooooooooooo........                                                                        ",
"OOOOOOOOoooooooooooooooooooooooooooooooooooooooo........                                                                        ",
"OOOOOOOOoooooooooooooooooooooooooooooooooooooooo........                                                                        ",
"OOOOOOOOoooooooooooooooooooooooooooooooooooooooo........                                                                        ",
"OOOOOOOOoooooooooooooooooooooooooooooooooooooooo........                                                                        ",
"OOOOOOOOoooooooooooooooooooooooooooooooooooooooo........                                                                        ",
"OOOOOOOOoooooooooooooooooooooooooooooooooooooooo........                                                                        ",
"OOOOOOOOoooooooooooooooooooooooooooooooooooooooo........                                                                        ",
"OOOOOOOOoooooooooooooooooooooooooooooooooooooooo........                                                                        ",
"        OOOOOOOOoooooooooooooooooooooooooooooooo........                                                                        ",
"        OOOOOOOOoooooooooooooooooooooooooooooooo........                                                                        ",
"        OOOOOOOOoooooooooooooooooooooooooooooooo........                                                                        ",
"        OOOOOOOOoooooooooooooooooooooooooooooooo........                                                                        ",
"        OOOOOOOOoooooooooooooooooooooooooooooooo........                                                                        ",
"        OOOOOOOOoooooooooooooooooooooooooooooooo........                                                                        ",
"        OOOOOOOOoooooooooooooooooooooooooooooooo........                                                                        ",
"        OOOOOOOOoooooooooooooooooooooooooooooooo........                                                                        ",
"        OOOOOOOOoooooooooooooooooooooooooooooooo........                                                                        ",
"        OOOOOOOOoooooooooooooooooooooooooooooooo........                                                                        ",
"        OOOOOOOOoooooooooooooooooooooooooooooooo........                                                                        ",
"        OOOOOOOOoooooooooooooooooooooooooooooooo........                                                                        ",
"        OOOOOOOOoooooooooooooooooooooooooooooooo........                                                                        ",
"        OOOOOOOOoooooooooooooooooooooooooooooooo........                                                                        ",
"        OOOOOOOOoooooooooooooooooooooooooooooooo........                                                                        ",
"        OOOOOOOOoooooooooooooooooooooooooooooooo........                                                                        ",
"        OOOOOOOOoooooooooooooooooooooooooooooooo........                                                                        ",
"        OOOOOOOOoooooooooooooooooooooooooooooooo........                                                                        ",
"        OOOOOOOOoooooooooooooooooooooooooooooooo........                                                                        ",
"        OOOOOOOOoooooooooooooooooooooooooooooooo........                                                                        ",
"        OOOOOOOOoooooooooooooooooooooooooooooooo........                                                                        ",
"        OOOOOOOOoooooooooooooooooooooooooooooooo........                                                                        ",
"        OOOOOOOOoooooooooooooooooooooooooooooooo........                                                                        ",
"        OOOOOOOOoooooooooooooooooooooooooooooooo........                                                                        ",
"        OOOOOOOOoooooooooooooooooooooooooooooooo........                                                                        ",
"        OOOOOOOOoooooooooooooooooooooooooooooooo........                                                                        ",
"        OOOOOOOOoooooooooooooooooooooooooooooooo........                                                                        ",
"        OOOOOOOOoooooooooooooooooooooooooooooooo........                                                                        ",
"        OOOOOOOOoooooooooooooooooooooooooooooooo........                                                                        ",
"        OOOOOOOOoooooooooooooooooooooooooooooooo........                                                                        ",
"        OOOOOOOOoooooooooooooooooooooooooooooooo........                                                                        ",
"        OOOOOOOOoooooooooooooooooooooooooooooooo........                                                                        ",
"        OOOOOOOOoooooooooooooooooooooooooooooooo........                                                                        ",
"        OOOOOOOOoooooooooooooooooooooooooooooooo........                                                                        ",
"        OOOOOOOOoooooooooooooooooooooooooooooooo........                                                                        ",
"        OOOOOOOOoooooooooooooooooooooooooooooooo........                                                                        ",
"        OOOOOOOOoooooooooooooooooooooooooooooooo........                                                                        ",
"        OOOOOOOOoooooooooooooooooooooooooooooooo........                                                                        ",
"        OOOOOOOOoooooooooooooooooooooooooooooooo........                                                                        ",
"        OOOOOOOOoooooooooooooooooooooooooooooooo........                                                                        ",
"        OOOOOOOOoooooooooooooooooooooooooooooooo........                                                                        ",
"        OOOOOOOOoooooooooooooooooooooooooooooooo........                                                                        ",
"        OOOOOOOOoooooooooooooooooooooooooooooooo........                                                                        ",
"        OOOOOOOOoooooooooooooooooooooooooooooooo........                                                                        ",
"        OOOOOOOOoooooooooooooooooooooooooooooooo........                                                                        ",
"        OOOOOOOOoooooooooooooooooooooooooooooooo........                                                                        ",
"        OOOOOOOOoooooooooooooooooooooooooooooooo........                                                                        ",
"        OOOOOOOOoooooooooooooooooooooooooooooooo........                                                                        ",
"        OOOOOOOOoooooooooooooooooooooooooooooooo........                                                                        ",
"        OOOOOOOOoooooooooooooooooooooooooooooooo........                                                                        ",
"        OOOOOOOOoooooooooooooooooooooooooooooooo........                                                                        ",
"        OOOOOOOOoooooooooooooooooooooooooooooooo........                                                                        ",
"        OOOOOOOOoooooooooooooooooooooooooooooooo........                                                                        ",
"        OOOOOOOOoooooooooooooooooooooooooooooooo........                                                                        ",
"        OOOOOOOOoooooooooooooooooooooooooooooooo........                                                                        ",
"        OOOOOOOOoooooooooooooooooooooooooooooooo........                                                                        ",
"        OOOOOOOOoooooooooooooooooooooooooooooooo........                                                                        ",
"        OOOOOOOOoooooooooooooooooooooooooooooooo........                                                                        ",
"        OOOOOOOOoooooooooooooooooooooooooooooooo........                                                                        ",
"        OOOOOOOOoooooooooooooooooooooooooooooooo........                                                                        ",
"        OOOOOOOOoooooooooooooooooooooooooooooooo........                                                                        ",
"        OOOOOOOOoooooooooooooooooooooooooooooooo........                                                                        ",
"        OOOOOOOOoooooooooooooooooooooooooooooooo........                                                                        ",
"        OOOOOOOOoooooooooooooooooooooooooooooooo........                                                                        ",
"        OOOOOOOOoooooooooooooooooooooooooooooooo........                                                                        ",
"        OOOOOOOOoooooooooooooooooooooooooooooooo........                                                                        ",
"        OOOOOOOOoooooooooooooooooooooooooooooooo........                                                                        ",
"        OOOOOOOOoooooooooooooooooooooooooooooooo........                                                                        ",
"        OOOOOOOOoooooooooooooooooooooooooooooooo........                                                                        ",
"        OOOOOOOOoooooooooooooooooooooooooooooooo........                                                                        ",
"        OOOOOOOOoooooooooooooooooooooooooooooooo........                                                                        ",
"        OOOOOOOOoooooooooooooooooooooooooooooooo........                                                                        ",
"        OOOOOOOOoooooooooooooooooooooooooooooooo........                                                                        ",
"        OOOOOOOOoooooooooooooooooooooooooooooooo........                                                                        ",
"        OOOOOOOOoooooooooooooooooooooooooooooooo........                                                                        ",
"        OOOOOOOOoooooooooooooooooooooooooooooooo........                                                                        ",
"        OOOOOOOOoooooooooooooooooooooooooooooooo........                                                                        ",
"        OOOOOOOOoooooooooooooooooooooooooooooooo........                                                                        ",
"        OOOOOOOOoooooooooooooooooooooooooooooooo........                                                                        ",
"        OOOOOOOOoooooooooooooooooooooooooooooooo........                                                                        ",
"        ooooooooXXXXXXXXXXXXXXXXXXXXXXXXXXXXXXXX........                                                                        ",
"        ooooooooXXXXXXXXXXXXXXXXXXXXXXXXXXXXXXXX........                                                                        ",
"        ooooooooXXXXXXXXXXXXXXXXXXXXXXXXXXXXXXXX........                                                                        ",
"        ooooooooXXXXXXXXXXXXXXXXXXXXXXXXXXXXXXXX........                                                                        ",
"        ooooooooXXXXXXXXXXXXXXXXXXXXXXXXXXXXXXXX........                                                                        ",
"        ooooooooXXXXXXXXXXXXXXXXXXXXXXXXXXXXXXXX........                                                                        ",
"        ooooooooXXXXXXXXXXXXXXXXXXXXXXXXXXXXXXXX........                                                                        ",
"        ooooooooXXXXXXXXXXXXXXXXXXXXXXXXXXXXXXXX........                                                                        "
};
